<svg width="134" height="134" viewBox="0 0 134 134" fill="none" xmlns="http://www.w3.org/2000/svg">
<path d="M35.545 15.49C35.7523 15.8036 35.8576 16.1224 35.8608 16.4464C35.8662 16.7593 35.7672 17.1172 35.5638 17.5203C35.4318 17.7993 35.241 18.0693 34.9915 18.3302C34.742 18.591 34.4671 18.8207 34.1668 19.0193C33.8598 19.2222 33.4133 19.3736 32.8271 19.4734C32.3942 19.5294 32.0082 19.5113 31.6691 19.419C31.3367 19.3223 31.0844 19.1439 30.9123 18.8836C30.7932 18.7034 30.7472 18.5468 30.7744 18.4138C30.7971 18.2741 30.8985 18.1447 31.0787 18.0256C31.1721 17.9638 31.2954 17.9399 31.4484 17.9538C31.5971 17.961 31.7056 17.9947 31.7742 18.0549C32.0485 18.2667 32.351 18.3688 32.6816 18.3612C33.0078 18.3469 33.3445 18.2251 33.6915 17.9957C34.0919 17.731 34.377 17.4369 34.5469 17.1137C34.7235 16.786 34.7301 16.4986 34.5669 16.2517C34.408 16.0115 34.12 15.895 33.7029 15.9023C33.2857 15.9095 32.8994 15.9779 32.5439 16.1075C32.024 16.2786 31.5387 16.3932 31.0881 16.4513C30.6197 16.5117 30.2149 16.4724 29.8737 16.3335C29.5326 16.1946 29.2694 15.9851 29.084 15.7048C28.912 15.4445 28.8278 15.1213 28.8315 14.7353C28.8308 14.3426 28.9142 14.0045 29.0817 13.7211C29.171 13.5662 29.3516 13.3461 29.6234 13.0609C29.8975 12.7646 30.1079 12.568 30.2547 12.4709C30.4482 12.343 30.6772 12.2251 30.9417 12.1174C31.2061 12.0097 31.4405 11.9507 31.6446 11.9404C32.0486 11.9131 32.3647 11.9199 32.5931 11.9607C32.8215 12.0015 33.0018 12.122 33.1342 12.3222C33.2136 12.4424 33.2375 12.58 33.2058 12.7352C33.1808 12.886 33.0582 13.0342 32.838 13.1798C32.7846 13.2151 32.7158 13.227 32.6315 13.2156C32.5473 13.2042 32.4342 13.1782 32.2924 13.1377C32.0929 13.0682 31.9277 13.0431 31.7967 13.0626C31.6746 13.0954 31.5035 13.1558 31.2835 13.2437C31.0702 13.3272 30.8901 13.4175 30.7433 13.5145C30.5831 13.6204 30.4383 13.7641 30.3089 13.9455C30.1796 14.127 30.0967 14.3208 30.0604 14.527C30.0264 14.7221 30.0623 14.8998 30.1682 15.0599C30.2564 15.1934 30.3937 15.2705 30.58 15.2912C30.7686 15.3008 30.9695 15.2782 31.1827 15.2236C31.4358 15.1713 31.699 15.098 31.9723 15.0036C32.3411 14.8941 32.6487 14.8154 32.8951 14.7676C33.1439 14.7086 33.3992 14.6741 33.661 14.664C34.116 14.6413 34.4852 14.6849 34.7688 14.7947C35.048 14.8979 35.3067 15.1296 35.545 15.49ZM40.29 8.27215C40.4616 8.34759 40.5885 8.41401 40.6707 8.4714C40.7529 8.52879 40.8118 8.59329 40.8474 8.66491C40.8902 8.75085 40.8828 8.87964 40.8253 9.05126C40.7749 9.21933 40.696 9.33009 40.5885 9.38357C40.4453 9.45487 40.32 9.49042 40.2127 9.49023C40.1054 9.49004 39.9999 9.45765 39.8962 9.39306C39.6532 9.24594 39.4012 9.13458 39.1401 9.05899C38.8755 8.97623 38.5928 9.00971 38.292 9.15943C37.9984 9.3056 37.7028 9.53762 37.4053 9.8555C37.1078 10.1734 36.923 10.4754 36.8509 10.7615C36.6995 11.4266 36.8181 12.1496 37.2066 12.9302C37.5168 13.5533 37.9757 13.9906 38.5835 14.2421C39.2199 14.4973 39.8496 14.4698 40.4727 14.1596C40.7591 14.017 41.0457 13.8118 41.3324 13.544C41.6227 13.2654 41.8093 12.9581 41.8922 12.6219L41.8815 12.6273C41.9426 12.427 42.0699 12.2788 42.2633 12.1825C42.3779 12.1255 42.5102 12.1222 42.6604 12.1725C42.8178 12.2193 42.9214 12.2928 42.9713 12.3931C43.0248 12.5005 43.055 12.6061 43.062 12.7099C43.0725 12.8029 43.0598 12.921 43.0238 13.064C42.8905 13.5325 42.6268 13.9452 42.2327 14.3023C41.8421 14.6486 41.3567 14.9662 40.7766 15.2549C40.2968 15.4938 39.7778 15.6091 39.2197 15.601C38.6687 15.5893 38.1627 15.4792 37.7015 15.2709C37.4549 15.1345 37.1673 14.9068 36.8387 14.5878C36.5138 14.2581 36.2907 13.9715 36.1695 13.728C35.8593 13.1049 35.6583 12.4677 35.5665 11.8164C35.4782 11.1543 35.5401 10.5606 35.7521 10.035C35.8887 9.68106 36.1648 9.32915 36.5804 8.97928C36.9961 8.62941 37.4008 8.35643 37.7947 8.16036C38.1099 8.00351 38.4016 7.91637 38.67 7.89897C38.9419 7.87083 39.1977 7.89096 39.4373 7.95937C39.6733 8.02061 39.9575 8.12487 40.29 8.27215ZM47.6273 8.99342C48.6728 9.88403 49.5968 10.5585 50.3993 11.0169C50.4807 11.0564 50.5345 11.1139 50.5607 11.1895C50.5948 11.2878 50.5632 11.3919 50.4658 11.5019C50.3711 11.6194 50.2444 11.7057 50.0856 11.7607C49.8513 11.842 49.564 11.8315 49.2238 11.7294C48.9801 11.6615 48.7292 11.5241 48.4712 11.3172C48.2106 11.1027 47.901 10.8206 47.5426 10.4707L47.2162 10.1521C46.8965 9.86496 46.7073 9.69773 46.6485 9.65037C46.5058 9.77606 46.3301 9.89203 46.1214 9.99828C45.9127 10.1045 45.6535 10.224 45.3439 10.3568C45.6946 11.319 45.9367 11.9929 46.0704 12.3784C46.1202 12.522 46.1079 12.6575 46.0335 12.7849C45.9565 12.9047 45.8387 12.9922 45.68 13.0472C45.4834 13.1153 45.3048 13.0884 45.1439 12.9664C44.9647 12.7914 44.7978 12.481 44.6431 12.035L44.3674 11.2035C44.1892 10.6895 44.0315 10.198 43.8943 9.72911C43.6997 9.11919 43.5526 8.67063 43.453 8.38341L43.2638 7.80125C43.2035 7.62741 43.1306 7.45372 43.045 7.28018C42.911 7.28433 42.7855 7.26433 42.6686 7.2202C42.5491 7.16851 42.4723 7.09354 42.4382 6.99528C42.3727 6.80632 42.3909 6.63912 42.4929 6.49368C42.5998 6.33806 42.7538 6.20844 42.955 6.10481C43.5331 5.79424 44.1132 5.53805 44.6952 5.33622C45.6853 4.99285 46.5697 4.89365 47.3481 5.03859C48.1266 5.18354 48.6469 5.63393 48.909 6.38978C48.9902 6.62409 49.0159 6.86919 48.9861 7.12508C48.9613 7.37079 48.8868 7.59559 48.7628 7.79949C48.4325 8.312 48.054 8.70998 47.6273 8.99342ZM47.6954 6.77252C47.5696 6.40972 47.2746 6.18178 46.8105 6.0887C46.3513 5.98544 45.7665 6.05701 45.056 6.30339C44.7461 6.41086 44.4417 6.55874 44.1429 6.74703C44.2524 7.01389 44.3268 7.20401 44.3661 7.31739C44.4448 7.54414 44.5424 7.87439 44.6589 8.30815C44.7906 8.73666 44.901 9.07941 44.9901 9.3364C45.4965 9.16079 45.9566 8.92501 46.3705 8.62907C46.669 8.41548 46.9159 8.22402 47.1112 8.05469C47.3065 7.88535 47.4711 7.68856 47.605 7.4643C47.7439 7.22987 47.774 6.99927 47.6954 6.77252ZM53.5987 2.87687C54.1242 2.77098 54.616 2.74123 55.0742 2.78763C55.5308 2.82618 55.9216 2.94327 56.2467 3.13891C56.8308 3.48635 57.2747 3.90696 57.5782 4.40072C57.888 4.88507 58.1259 5.53896 58.2918 6.36241C58.3266 6.53494 58.3347 6.69653 58.3161 6.84717C58.3053 6.99623 58.275 7.19004 58.2251 7.42859C58.1565 7.69541 58.1246 7.90177 58.1296 8.04768C58.028 8.35377 57.8222 8.66864 57.512 8.9923C57.2097 9.31437 56.8665 9.59572 56.4825 9.83633C56.0984 10.0769 55.7496 10.2289 55.4359 10.2921C53.9223 10.5971 52.7397 10.2968 51.888 9.39124C51.6491 9.13742 51.4471 8.86394 51.2819 8.5708C51.1246 8.27607 51.0159 7.9797 50.9559 7.68169C50.7947 6.88177 50.796 6.15928 50.9597 5.51421C51.1298 4.85971 51.4365 4.31641 51.8799 3.8843C52.1494 3.64229 52.437 3.42928 52.7426 3.24526C53.0546 3.05183 53.3399 2.92903 53.5987 2.87687ZM52.1864 7.47043C52.2717 7.89391 52.4362 8.22393 52.6797 8.46048C52.9311 8.69545 53.2891 8.9334 53.7539 9.17433C54.1086 9.23343 54.3487 9.27073 54.4742 9.28624C54.5982 9.2939 54.7346 9.28272 54.8836 9.25269C55.6757 9.09306 56.2636 8.75017 56.6472 8.22401C57.0308 7.69785 57.1467 7.05834 56.995 6.30548C56.8749 5.70946 56.7134 5.25236 56.5105 4.93416C56.3077 4.61597 56.0061 4.3544 55.6057 4.14946C55.3953 4.03681 55.1418 3.97364 54.8453 3.95995C54.5566 3.94469 54.2514 3.96946 53.9299 4.03426C53.4437 4.13225 53.0534 4.36189 52.7589 4.72317C52.4629 5.07662 52.2666 5.49973 52.1701 5.99252C52.0814 6.48373 52.0868 6.97636 52.1864 7.47043ZM60.4644 1.7584C60.616 1.74746 60.7545 1.77757 60.88 1.84873C61.0134 1.91931 61.0993 2.05348 61.1376 2.25123C61.2788 2.87469 61.3841 3.50073 61.4536 4.12936C61.5304 4.74944 61.5973 5.45446 61.6543 6.2444C61.6785 6.57953 61.6946 7.19196 61.7026 8.08169C62.056 8.08828 62.3285 8.08466 62.52 8.07085C62.6556 8.06106 62.9614 8.01895 63.4372 7.94451C63.7136 7.88447 63.9556 7.84696 64.163 7.83199C64.3545 7.81818 64.5315 7.82546 64.694 7.85384C64.8559 7.87425 65.0235 7.9183 65.1968 7.986C65.3713 8.06967 65.4657 8.21124 65.4801 8.41072C65.4916 8.5703 65.4501 8.71767 65.3556 8.85283C65.269 8.9874 65.1579 9.05958 65.0223 9.06937C64.9265 9.07628 64.7738 9.07126 64.564 9.05431C64.185 9.02551 63.8239 9.02349 63.4808 9.04824C63.3691 9.0563 63.242 9.07349 63.0995 9.09981C62.9644 9.11758 62.865 9.12876 62.8011 9.13337C62.6114 9.17112 62.4207 9.19691 62.2292 9.21072C61.8382 9.23893 61.4857 9.24431 61.1716 9.22687C61.0109 9.22242 60.847 9.17409 60.6799 9.08187C60.5123 8.98168 60.421 8.82785 60.406 8.62039C60.3974 8.5007 60.3912 8.19235 60.3874 7.69533C60.384 6.86944 60.3667 6.24105 60.3356 5.81017C60.3114 5.47504 60.2701 5.1251 60.2118 4.76036C60.1534 4.39562 60.1167 4.16566 60.1018 4.07048C59.9811 3.39743 59.9049 2.84147 59.8732 2.40261C59.8582 2.19515 59.8952 2.04009 59.984 1.93743C60.0808 1.83419 60.241 1.77452 60.4644 1.7584ZM67.2667 1.45282C67.4187 1.45703 67.5535 1.50077 67.6712 1.58406C67.797 1.66757 67.8691 1.80962 67.8875 2.01021C67.966 2.64462 68.0085 3.27804 68.015 3.91046C68.0298 4.53511 68.0262 5.24328 68.0043 6.03497C67.995 6.37085 67.9501 6.98184 67.8695 7.86795C68.2205 7.90967 68.492 7.93319 68.6839 7.9385C68.8199 7.94226 69.1283 7.93078 69.6092 7.90407C69.8902 7.87183 70.1347 7.85859 70.3426 7.86434C70.5345 7.86965 70.7099 7.89451 70.8687 7.93892C71.0278 7.97533 71.1902 8.03584 71.3559 8.12046C71.5212 8.22107 71.6011 8.37133 71.5955 8.57126C71.5911 8.7312 71.5351 8.8737 71.4276 8.99878C71.3281 9.12408 71.2104 9.18484 71.0745 9.18108C70.9785 9.17843 70.827 9.15823 70.62 9.12049C70.2457 9.05411 69.8866 9.01617 69.5427 9.00665C69.4307 9.00356 69.3026 9.00801 69.1582 9.02003C69.022 9.02426 68.9219 9.0255 68.858 9.02373C68.6654 9.04241 68.4731 9.04909 68.2812 9.04378C67.8893 9.03294 67.538 9.00321 67.2272 8.9546C67.0678 8.93418 66.9095 8.86978 66.7524 8.7614C66.5956 8.64501 66.52 8.48286 66.5258 8.27494C66.5291 8.15499 66.5536 7.84755 66.5993 7.35262C66.6781 6.53049 66.7234 5.9035 66.7354 5.47167C66.7447 5.1358 66.7384 4.78349 66.7166 4.41474C66.6948 4.046 66.6812 3.81354 66.6759 3.71735C66.6227 3.03562 66.6022 2.47484 66.6144 2.03501C66.6201 1.82709 66.6723 1.67647 66.7709 1.58316C66.8775 1.49008 67.0428 1.44663 67.2667 1.45282ZM75.6847 2.60179C75.7457 2.26323 76.0242 2.13863 76.5202 2.22798C76.7328 2.26627 77.1369 2.34719 77.7324 2.47072C78.3881 2.62134 78.8852 2.72715 79.2237 2.78813C79.4993 2.83777 79.8368 2.8823 80.2361 2.92171C80.5066 2.95419 80.6773 2.97681 80.7482 2.98957C81.1784 3.08332 81.5303 3.228 81.804 3.42361C81.8835 3.47858 81.9458 3.53858 81.991 3.60362C82.0362 3.66866 82.0474 3.76417 82.0247 3.89014C81.9935 4.06336 81.9115 4.20302 81.7786 4.30914C81.6471 4.40738 81.5026 4.44232 81.3451 4.41396C81.1719 4.38276 80.9242 4.31375 80.602 4.20695C80.3207 4.09936 80.0697 4.02571 79.8493 3.986C79.6367 3.94771 79.4746 3.92257 79.363 3.91059C79.2925 4.16615 79.1687 4.78602 78.9914 5.77018C78.7801 6.9433 78.6014 8.13854 78.4552 9.35592L78.4172 9.70266C78.359 10.0255 78.1449 10.1535 77.7749 10.0869C77.4836 10.0344 77.2988 9.93203 77.2205 9.77975C77.1437 9.61959 77.1308 9.3978 77.1819 9.11436C77.2826 8.55535 77.3924 7.85573 77.5112 7.01549C77.6045 6.31697 77.6774 5.82205 77.7299 5.53074C77.7653 5.33391 77.8974 4.73586 78.1262 3.73659L76.7423 3.4995C76.3014 3.42007 76.0015 3.3254 75.8424 3.21546C75.6848 3.09766 75.6322 2.8931 75.6847 2.60179ZM85.2246 12.0391C84.7216 11.8785 84.28 11.6703 83.8998 11.4145C83.522 11.1511 83.2387 10.8549 83.0498 10.5259C82.7008 9.93575 82.5087 9.35375 82.4736 8.77988C82.4485 8.20082 82.5638 7.5112 82.8193 6.711C82.8728 6.54334 82.9455 6.39441 83.0375 6.26421C83.1395 6.12883 83.2616 5.98307 83.4039 5.82693C83.4438 5.78089 83.5048 5.70801 83.5871 5.6083C83.6793 5.50339 83.7489 5.40384 83.7958 5.30964C84.0258 5.08914 84.3512 4.91171 84.772 4.77734C85.2004 4.64541 85.6397 4.57153 86.0898 4.5557C86.5424 4.53226 86.9211 4.5692 87.226 4.66654C88.6968 5.13619 89.5879 5.97498 89.8992 7.18292C90.07 7.8841 90.0605 8.5319 89.8707 9.12634C89.6249 9.89605 89.2686 10.5255 88.8017 11.0146C88.3424 11.5062 87.8178 11.8342 87.2278 11.9985C86.8646 12.0841 86.5047 12.1329 86.1481 12.145C85.7915 12.1572 85.4837 12.1218 85.2246 12.0391ZM83.738 7.93654C83.5966 8.35325 83.5735 8.72799 83.6688 9.06074C83.7741 9.38831 83.9777 9.77662 84.2794 10.2257C84.5477 10.4373 84.7368 10.5817 84.8465 10.6587C84.9563 10.7357 85.0836 10.7974 85.2284 10.8436C85.7237 11.0018 86.1948 11.0388 86.6415 10.9547C87.0883 10.8706 87.4717 10.6824 87.7919 10.3899C88.1196 10.0998 88.3541 9.73379 88.4952 9.29178C88.6801 8.71259 88.7614 8.23465 88.7389 7.85796C88.7164 7.48127 88.5801 7.10603 88.3299 6.73222C88.2009 6.53146 88.0101 6.35298 87.7577 6.19679C87.5129 6.04303 87.238 5.91748 86.9332 5.82015C86.2016 5.58654 85.5511 5.66436 84.9817 6.05361C84.4224 6.43767 84.0078 7.06532 83.738 7.93654ZM97.5094 15.7016C97.644 15.7722 97.7154 15.8773 97.7235 16.017C97.7424 16.1533 97.7202 16.2817 97.6571 16.4022C97.5792 16.551 97.4987 16.6443 97.4157 16.6821C97.3435 16.7165 97.2233 16.7304 97.0553 16.7236C96.7013 16.7098 96.3323 16.6384 95.9482 16.5095C95.5713 16.3842 95.1206 16.1843 94.5962 15.9096C93.9655 15.5792 93.5358 15.2186 93.307 14.8278C93.089 14.4336 93.0123 14.0457 93.0768 13.664C93.1412 13.2824 93.2867 12.8754 93.5131 12.4431L93.864 11.7734C94.1053 11.3128 94.3479 10.8755 94.5919 10.4614C94.843 10.0511 95.156 9.58289 95.531 9.0568C95.7588 8.74264 96.0215 8.56869 96.3191 8.53496C96.6205 8.49414 96.9023 8.54241 97.1645 8.67977C97.4479 8.82826 97.8414 9.02536 98.3449 9.27105L99.2752 9.74488C99.6508 9.94164 99.9216 10.0971 100.088 10.2111C100.278 10.365 100.408 10.4963 100.477 10.605C100.558 10.7102 100.564 10.8267 100.498 10.9542C100.423 11.096 100.301 11.2082 100.132 11.2908C99.969 11.3772 99.792 11.3703 99.6006 11.27C99.3809 11.155 99.073 10.9756 98.6769 10.7319C98.2807 10.4883 97.9799 10.3126 97.7743 10.2049C97.5192 10.0713 97.3082 9.97427 97.1411 9.91386C96.9353 9.82408 96.7805 9.77464 96.6769 9.76552C96.5733 9.7564 96.4922 9.79065 96.4335 9.86827C95.9519 10.5462 95.6201 11.0588 95.4382 11.406C95.583 11.509 95.744 11.6068 95.9211 11.6996C96.1479 11.8184 96.54 11.9922 97.0975 12.2211C97.5058 12.3898 97.8375 12.541 98.0926 12.6747C98.2556 12.76 98.3612 12.8515 98.4095 12.949C98.4577 13.0466 98.4559 13.1449 98.4039 13.2441C98.3222 13.4 98.2202 13.5001 98.0977 13.5443C97.9752 13.5885 97.8 13.578 97.5722 13.5129C97.2982 13.4326 96.9554 13.3026 96.5437 13.1231C96.1391 12.9472 95.7596 12.7665 95.4053 12.5809C95.2706 12.5104 95.1078 12.416 94.9168 12.2979C94.6718 12.7656 94.5 13.1453 94.4015 13.4368C94.31 13.7321 94.2997 13.9931 94.3705 14.2199C94.4485 14.4504 94.6434 14.6473 94.9552 14.8106C95.6567 15.1782 96.25 15.4077 96.7349 15.4991C97.0882 15.5488 97.3464 15.6163 97.5094 15.7016ZM107.235 14.9282C107.366 15.0196 107.435 15.1308 107.441 15.2618C107.459 15.3909 107.42 15.5244 107.324 15.6623C107.219 15.8134 107.06 15.9568 106.849 16.0925C106.473 16.1429 106.02 16.2417 105.489 16.3889C104.958 16.5361 104.315 16.7322 103.56 16.9772C103.51 17.8195 103.492 18.4694 103.505 18.9268C103.523 19.3777 103.595 19.7297 103.721 19.9829C103.774 20.0883 103.849 20.1985 103.944 20.3135C104.063 20.4645 104.143 20.5881 104.183 20.6843C104.224 20.7805 104.212 20.8746 104.148 20.9666C104.02 21.1505 103.839 21.2291 103.604 21.2024C103.374 21.169 103.137 21.0679 102.894 20.8989C102.579 20.6797 102.388 20.2888 102.321 19.726C102.261 19.1678 102.257 18.3955 102.31 17.4089C101.517 17.6665 100.864 17.8701 100.35 18.0199C99.8417 18.1631 99.4026 18.2622 99.0331 18.3172C98.9597 18.3246 98.8712 18.3118 98.7675 18.2787C98.6684 18.2391 98.5893 18.1987 98.5302 18.1576C98.3857 18.0571 98.302 17.9113 98.2791 17.72C98.2627 17.5332 98.2947 17.3752 98.3749 17.2458C98.3886 17.2261 98.4704 17.1855 98.6202 17.1241C98.7701 17.0626 98.9708 17.0122 99.2224 16.9727C99.4734 16.962 99.8421 16.8871 100.329 16.7479C100.822 16.6132 101.5 16.4078 102.365 16.1317L102.394 15.4798C102.418 14.9122 102.431 14.5019 102.431 14.2489C102.432 13.9959 102.409 13.7902 102.363 13.6317C102.322 13.4667 102.242 13.3431 102.124 13.2609C102.085 13.2335 102.013 13.2033 101.909 13.1702C101.817 13.1351 101.744 13.0993 101.692 13.0628C101.62 13.0125 101.563 12.9537 101.522 12.8864C101.408 12.7 101.401 12.5345 101.502 12.39C101.548 12.3243 101.6 12.2776 101.658 12.2499C101.793 12.1682 101.976 12.1351 102.209 12.1507C102.453 12.1644 102.719 12.2716 103.008 12.4725C103.278 12.6598 103.463 12.8908 103.564 13.1658C103.665 13.4407 103.716 13.7535 103.716 14.1041C103.722 14.4593 103.697 14.9926 103.641 15.7038C104.903 15.2757 105.774 15.0041 106.253 14.8892C106.539 14.8148 106.746 14.7834 106.874 14.7947C107.003 14.8061 107.123 14.8506 107.235 14.9282ZM108.48 22.323C108.247 22.1155 108.055 21.934 107.904 21.7785C107.765 21.6223 107.583 21.4119 107.358 21.1473L106.511 22.0805C106.361 22.2366 106.154 22.464 105.888 22.7628C105.749 22.9181 105.596 23.0008 105.426 23.0106C105.268 23.0198 105.135 22.9765 105.028 22.8808C104.83 22.7053 104.705 22.5511 104.652 22.4182C104.604 22.2793 104.639 22.1441 104.756 22.0126C104.91 21.8393 105.143 21.6076 105.455 21.3175C106.127 20.6948 106.782 20.0248 107.421 19.3077C108.016 18.6384 108.556 17.9894 109.041 17.3605C109.122 17.2822 109.249 17.2238 109.422 17.1854C109.601 17.1523 109.759 17.1856 109.895 17.2853C110.033 17.4077 110.272 17.5779 110.613 17.796C110.967 18.0248 111.224 18.211 111.385 18.3546C111.875 18.7907 112.212 19.1763 112.396 19.5112C112.586 19.8515 112.72 20.2545 112.798 20.7203C112.682 21.4523 112.539 21.914 112.369 22.1052C112.012 22.5056 111.615 22.7894 111.177 22.9565C110.739 23.1236 110.288 23.1556 109.823 23.0523C109.358 22.949 108.91 22.7059 108.48 22.323ZM110.851 19.2442C110.659 19.074 110.482 18.937 110.317 18.8332C110.163 18.7288 109.967 18.6128 109.727 18.4851C109.262 19.0561 108.917 19.4671 108.694 19.7181C108.465 19.9751 108.265 20.1822 108.093 20.3396C108.302 20.6221 108.473 20.8388 108.606 20.9897C108.745 21.1346 108.907 21.2895 109.092 21.4544C109.535 21.848 109.946 22.011 110.328 21.9435C110.72 21.8753 111.052 21.6888 111.324 21.384C111.403 21.2944 111.475 21.1599 111.538 20.9806C111.601 20.8012 111.631 20.672 111.626 20.593C111.592 20.306 111.519 20.0694 111.406 19.8833C111.305 19.6965 111.12 19.4835 110.851 19.2442ZM115.589 22.3633C115.819 22.6192 115.819 22.8883 115.589 23.1705C115.147 23.6964 114.557 24.2909 113.819 24.9539L112.687 25.9556L112.348 26.2604C111.979 26.5919 111.628 26.8904 111.297 27.156C111.498 27.4273 111.686 27.6611 111.863 27.8575C112.018 28.0301 112.23 28.2538 112.498 28.5287L112.997 29.0652C113.146 29.2318 113.26 29.3767 113.339 29.4999C113.428 29.6236 113.497 29.7717 113.544 29.9442C113.603 30.1173 113.558 30.2707 113.409 30.4043C113.29 30.5113 113.148 30.5689 112.984 30.5771C112.824 30.5912 112.699 30.5477 112.608 30.4465C112.544 30.3751 112.454 30.2514 112.339 30.0753C112.13 29.7582 111.91 29.4717 111.68 29.2158C111.605 29.1325 111.514 29.0426 111.405 28.9462C111.309 28.8504 111.239 28.7787 111.196 28.7311C111.05 28.6043 110.913 28.4695 110.784 28.3267C110.522 28.0351 110.302 27.7599 110.123 27.5011C110.028 27.3714 109.966 27.2123 109.936 27.0238C109.912 26.8299 109.978 26.6635 110.133 26.5245C110.317 26.3587 110.554 26.1618 110.844 25.9336C111.389 25.4869 111.867 25.0791 112.277 24.7101C112.515 24.4962 112.763 24.2574 113.021 23.9936C113.279 23.7298 113.447 23.5574 113.525 23.4766C113.975 22.9965 114.373 22.6014 114.718 22.2913C114.873 22.1523 115.018 22.0864 115.153 22.0936C115.294 22.1068 115.44 22.1967 115.589 22.3633ZM121.626 29.9264C121.932 30.3665 122.154 30.806 122.294 31.245C122.44 31.6793 122.488 32.0845 122.437 32.4605C122.35 33.1346 122.141 33.709 121.808 34.1837C121.487 34.6604 120.981 35.1385 120.291 35.6179C120.147 35.7183 120.002 35.7899 119.856 35.8327C119.715 35.882 119.525 35.9312 119.286 35.9802C119.014 36.0232 118.812 36.0759 118.68 36.1384C118.359 36.1668 117.988 36.103 117.568 35.9469C117.152 35.7974 116.758 35.5942 116.384 35.3373C116.011 35.0805 115.733 34.8207 115.55 34.5579C114.669 33.29 114.475 32.0854 114.968 30.9441C115.106 30.6241 115.277 30.3301 115.48 30.062C115.688 29.8006 115.917 29.5831 116.166 29.4096C116.837 28.9439 117.5 28.6581 118.157 28.5522C118.825 28.4482 119.446 28.5139 120.018 28.7491C120.348 28.9003 120.657 29.0796 120.948 29.287C121.249 29.4965 121.475 29.7096 121.626 29.9264ZM116.849 30.4549C116.494 30.7015 116.257 30.9835 116.137 31.301C116.021 31.625 115.945 32.0481 115.908 32.5703C115.995 32.9193 116.056 33.1544 116.092 33.2758C116.134 33.3926 116.198 33.5134 116.285 33.6382C116.746 34.3017 117.294 34.705 117.93 34.848C118.565 34.9911 119.198 34.8435 119.828 34.4052C120.328 34.0582 120.683 33.7284 120.894 33.4158C121.106 33.1033 121.226 32.7225 121.255 32.2737C121.275 32.0359 121.232 31.7782 121.127 31.5006C121.026 31.2296 120.882 30.9594 120.695 30.69C120.412 30.2827 120.046 30.0158 119.598 29.8891C119.156 29.7578 118.69 29.7458 118.199 29.8529C117.713 29.9666 117.263 30.1673 116.849 30.4549ZM122.933 40.7805C122.64 41.2445 122.394 41.685 122.193 42.1017C122.004 42.522 121.779 43.0588 121.52 43.7122C121.496 43.7875 121.451 43.8416 121.387 43.8743C121.288 43.9253 121.173 43.912 121.044 43.8344C120.918 43.7639 120.815 43.6503 120.735 43.4936C120.622 43.2727 120.593 42.9867 120.647 42.6356C120.694 42.3239 120.808 42.0099 120.987 41.6935C121.167 41.3771 121.414 40.9904 121.729 40.5333C121.969 40.177 122.109 39.9665 122.147 39.9017C121.891 39.6821 121.598 39.2839 121.268 38.7072C121.025 38.8309 120.709 39.0197 120.317 39.2735C119.912 39.5346 119.613 39.7143 119.42 39.8126C119.292 39.8781 119.152 39.8685 119.001 39.784C118.854 39.7065 118.74 39.5894 118.66 39.4327C118.566 39.2475 118.568 39.0668 118.666 38.8906C118.815 38.689 119.021 38.5029 119.284 38.3325C119.547 38.1621 119.871 37.9786 120.256 37.7821C120.662 37.5746 121.134 37.3648 121.673 37.1527C122.265 36.9043 122.696 36.7109 122.967 36.5726C123.187 36.4598 123.472 36.2874 123.821 36.0554C123.881 36.0156 123.986 35.9485 124.136 35.8541C124.285 35.7598 124.424 35.6799 124.552 35.6144C124.652 35.5635 124.756 35.5554 124.863 35.5903C124.982 35.6286 125.077 35.6832 125.149 35.7542C125.537 36.2839 125.87 36.8231 126.151 37.3717C126.627 38.3049 126.848 39.1671 126.812 39.9581C126.775 40.7491 126.401 41.3266 125.689 41.6905C125.468 41.8033 125.229 41.8626 124.971 41.8684C124.724 41.8777 124.491 41.835 124.272 41.7403C123.716 41.4768 123.269 41.1568 122.933 40.7805ZM125.148 40.5521C125.49 40.3774 125.675 40.0538 125.703 39.5813C125.738 39.1051 125.585 38.5322 125.242 37.8625C125.09 37.5633 124.903 37.2858 124.683 37.0301L124.143 37.3192C123.83 37.4793 123.518 37.6251 123.208 37.7566C122.897 37.8881 122.571 38.0412 122.229 38.2159C122.32 38.3224 122.403 38.4416 122.479 38.5733C122.563 38.7014 122.619 38.785 122.648 38.8241C122.837 39.123 122.996 39.347 123.126 39.4962C123.389 39.7658 123.613 39.9839 123.797 40.1505C123.992 40.3205 124.209 40.4564 124.45 40.5581C124.701 40.6633 124.934 40.6612 125.148 40.5521ZM124.12 50.1182C123.965 50.1833 123.845 50.2056 123.761 50.1852C123.685 50.162 123.588 50.0951 123.471 49.9845C123.299 49.8172 123.148 49.6 123.016 49.3329C122.887 49.0733 122.745 48.7293 122.589 48.3009L122.309 47.5343C122.065 46.8654 121.997 46.3282 122.105 45.9228C122.22 45.5147 122.424 45.2103 122.717 45.0098C123.01 44.8092 123.409 44.6083 123.915 44.4068C124.085 44.3363 124.339 44.2393 124.677 44.116C125.414 43.8474 126.422 43.5522 127.701 43.2304C128.075 43.1364 128.383 43.1734 128.623 43.3413C128.87 43.5064 129.046 43.7318 129.15 44.0174C129.235 44.2504 129.381 44.6272 129.588 45.1478L129.961 46.1358C130.109 46.5417 130.205 46.8389 130.248 47.0275C130.285 47.2694 130.294 47.4577 130.275 47.5924C130.264 47.7243 130.192 47.8187 130.059 47.8755C129.909 47.9304 129.744 47.935 129.566 47.8893C129.388 47.8437 129.261 47.7194 129.187 47.5165C129.102 47.2835 128.995 46.9436 128.866 46.4967C128.738 46.0498 128.632 45.7137 128.55 45.4882C128.476 45.2853 128.397 45.1052 128.314 44.9481C128.223 44.7431 128.142 44.6024 128.071 44.5259C128.001 44.4495 127.919 44.4239 127.826 44.4493C126.977 44.6654 126.393 44.8399 126.075 44.9728C126.116 45.1539 126.168 45.3308 126.231 45.5037C126.294 45.6766 126.395 45.9078 126.535 46.1975C126.57 46.2699 126.612 46.3611 126.66 46.4711C126.709 46.5811 126.759 46.7075 126.811 46.8503C126.841 46.933 126.882 47.0672 126.933 47.2531L127.049 47.6067C127.175 47.9524 127.114 48.1705 126.866 48.261C126.716 48.3158 126.58 48.3183 126.46 48.2685C126.34 48.2187 126.218 48.0969 126.097 47.9029C125.94 47.6364 125.745 47.1838 125.512 46.545L125.261 45.8573C125.209 45.7145 125.152 45.5351 125.09 45.3192C124.952 45.361 124.756 45.4285 124.5 45.5217C124.169 45.6423 123.938 45.7311 123.805 45.7879C123.287 46.0023 123.157 46.4628 123.415 47.1693C123.503 47.4098 123.588 47.6681 123.672 47.9441L123.813 48.3653C123.884 48.5608 123.962 48.7155 124.046 48.8296C124.138 48.9409 124.221 49.0512 124.294 49.1605C124.379 49.2745 124.44 49.3842 124.478 49.4894C124.53 49.6322 124.514 49.7617 124.428 49.878C124.351 49.9915 124.248 50.0716 124.12 50.1182ZM129.749 54.247C129.854 54.748 129.834 55.1366 129.687 55.4125C129.543 55.6963 129.298 55.8744 128.953 55.9467C128.719 55.996 128.476 55.9897 128.226 55.9277C127.978 55.8736 127.759 55.7643 127.569 55.5998C127.38 55.4431 127.261 55.2434 127.21 55.0007C127.105 54.4996 127.157 54.1045 127.366 53.8154C127.576 53.5341 127.87 53.354 128.246 53.2751C128.567 53.2078 128.875 53.2535 129.169 53.4123C129.472 53.5694 129.665 53.8477 129.749 54.247ZM128.119 66.2804C127.744 66.3061 127.415 66.2404 127.131 66.0834C126.856 65.9338 126.594 65.6711 126.344 65.2953C126.166 65.0429 126.025 64.7438 125.921 64.3981C125.818 64.0523 125.753 63.6999 125.729 63.3407C125.704 62.9736 125.792 62.5105 125.995 61.9514C126.159 61.5472 126.365 61.2203 126.613 60.9708C126.861 60.7293 127.141 60.5979 127.452 60.5767C127.668 60.5619 127.826 60.5991 127.929 60.6884C128.039 60.777 128.102 60.9291 128.116 61.1446C128.124 61.2564 128.084 61.3754 127.996 61.5016C127.917 61.6274 127.834 61.7052 127.748 61.7352C127.428 61.8693 127.19 62.082 127.034 62.3734C126.885 62.6642 126.825 63.0171 126.854 63.4322C126.886 63.911 127.001 64.3041 127.199 64.6113C127.397 64.9266 127.644 65.0741 127.939 65.0539C128.226 65.0342 128.47 64.8411 128.669 64.4747C128.868 64.1082 129 63.7384 129.062 63.3652C129.17 62.8286 129.309 62.35 129.481 61.9293C129.66 61.4921 129.894 61.1593 130.183 60.9311C130.472 60.7028 130.784 60.5772 131.119 60.5543C131.43 60.533 131.753 60.6191 132.087 60.8128C132.429 61.0059 132.682 61.2452 132.846 61.5307C132.937 61.6848 133.039 61.9505 133.153 62.3276C133.275 62.7121 133.343 62.9922 133.355 63.1678C133.371 63.3992 133.36 63.6565 133.323 63.9397C133.287 64.2229 133.222 64.4558 133.131 64.6385C132.955 65.0033 132.793 65.275 132.645 65.4535C132.497 65.6321 132.303 65.7295 132.064 65.7459C131.92 65.7557 131.789 65.7086 131.669 65.6045C131.55 65.5084 131.482 65.3286 131.464 65.0653C131.459 65.0014 131.483 64.9356 131.535 64.868C131.586 64.8003 131.664 64.7148 131.77 64.6113C131.928 64.4722 132.032 64.3408 132.079 64.2173C132.111 64.0948 132.143 63.9162 132.175 63.6815C132.208 63.4547 132.218 63.2536 132.206 63.078C132.193 62.8864 132.139 62.6896 132.045 62.4876C131.951 62.2855 131.823 62.1178 131.662 61.9845C131.509 61.8587 131.337 61.8023 131.145 61.8154C130.986 61.8264 130.851 61.9077 130.741 62.0596C130.64 62.2189 130.56 62.4047 130.502 62.6172C130.423 62.8632 130.357 63.1283 130.304 63.4126C130.218 63.7873 130.134 64.0937 130.054 64.3318C129.983 64.5772 129.887 64.8163 129.767 65.0491C129.562 65.456 129.342 65.7557 129.107 65.9482C128.879 66.1402 128.55 66.2509 128.119 66.2804ZM132.041 73.9808C131.89 74.0925 131.77 74.1698 131.679 74.2128C131.589 74.2558 131.504 74.275 131.424 74.2705C131.328 74.2651 131.22 74.1949 131.099 74.0599C130.978 73.9329 130.921 73.8095 130.928 73.6897C130.937 73.53 130.968 73.4035 131.021 73.3104C131.074 73.2172 131.155 73.1416 131.262 73.0836C131.51 72.9453 131.732 72.7815 131.927 72.5921C132.13 72.4033 132.241 72.1411 132.26 71.8056C132.278 71.4781 132.223 71.1064 132.094 70.6905C131.965 70.2746 131.794 69.9645 131.582 69.7603C131.079 69.2993 130.392 69.0443 129.521 68.9952C128.826 68.9561 128.219 69.1383 127.7 69.5417C127.163 69.9682 126.875 70.5289 126.836 71.2238C126.818 71.5433 126.854 71.8939 126.945 72.2756C127.043 72.6657 127.218 72.98 127.469 73.2185L127.469 73.2066C127.613 73.3589 127.679 73.5429 127.667 73.7585C127.659 73.8863 127.597 74.003 127.479 74.1085C127.36 74.222 127.245 74.2756 127.133 74.2693C127.013 74.2626 126.907 74.2365 126.813 74.1912C126.727 74.1543 126.631 74.0848 126.524 73.9827C126.183 73.6349 125.955 73.2014 125.84 72.6821C125.733 72.1713 125.697 71.5924 125.734 70.9454C125.764 70.4103 125.921 69.9023 126.204 69.4214C126.487 68.9486 126.833 68.5635 127.243 68.266C127.483 68.1193 127.824 67.9822 128.263 67.8547C128.711 67.7357 129.07 67.6838 129.342 67.6991C130.037 67.7382 130.69 67.8792 131.301 68.1219C131.92 68.3731 132.405 68.7209 132.757 69.1654C132.997 69.4593 133.166 69.8735 133.264 70.4078C133.362 70.9422 133.399 71.429 133.374 71.8683C133.354 72.2198 133.285 72.5164 133.168 72.7581C133.057 73.0083 132.913 73.2206 132.735 73.3948C132.565 73.5696 132.334 73.7649 132.041 73.9808ZM127.784 79.9957C126.492 80.4636 125.449 80.9329 124.654 81.4035C124.579 81.4547 124.503 81.473 124.424 81.4584C124.322 81.4394 124.247 81.3604 124.199 81.2214C124.144 81.0809 124.132 80.9281 124.163 80.7629C124.208 80.5191 124.359 80.2746 124.616 80.0295C124.796 79.8513 125.039 79.7013 125.347 79.5794C125.662 79.459 126.06 79.3296 126.542 79.1912L126.98 79.0652C127.388 78.9294 127.627 78.8477 127.697 78.8201C127.658 78.6339 127.645 78.4238 127.656 78.1899C127.666 77.9559 127.691 77.6716 127.729 77.3369C126.719 77.1655 126.014 77.0425 125.612 76.968C125.463 76.9402 125.351 76.8625 125.277 76.7348C125.211 76.6086 125.194 76.463 125.224 76.2978C125.262 76.0933 125.374 75.9513 125.56 75.8719C125.8 75.8027 126.153 75.8113 126.617 75.8975L127.476 76.0694C128.011 76.1688 128.516 76.2749 128.991 76.3876C129.618 76.5203 130.08 76.6144 130.379 76.6699L130.979 76.7936C131.16 76.8272 131.347 76.8497 131.54 76.8612C131.602 76.7427 131.682 76.6435 131.778 76.5638C131.882 76.4855 131.985 76.4558 132.088 76.4748C132.284 76.5114 132.42 76.6099 132.496 76.7705C132.579 76.9404 132.615 77.1384 132.606 77.3645C132.59 78.0206 132.525 78.6514 132.413 79.2571C132.221 80.2874 131.87 81.105 131.359 81.7098C130.848 82.3146 130.199 82.5439 129.412 82.3977C129.168 82.3524 128.943 82.2535 128.735 82.101C128.534 81.9578 128.375 81.7819 128.259 81.5732C127.978 81.0326 127.819 80.5067 127.784 79.9957ZM129.68 81.1537C130.058 81.2239 130.402 81.0803 130.712 80.723C131.029 80.3751 131.256 79.8314 131.394 79.0921C131.454 78.7696 131.476 78.432 131.46 78.0791C131.174 78.0422 130.972 78.0128 130.854 77.9909C130.618 77.9471 130.282 77.8685 129.848 77.7551C129.41 77.6576 129.058 77.5839 128.79 77.5342C128.693 78.0612 128.67 78.5777 128.722 79.0838C128.76 79.4489 128.804 79.7582 128.855 80.0117C128.905 80.2652 128.995 80.5056 129.124 80.7329C129.259 80.9696 129.444 81.1098 129.68 81.1537ZM130.108 88.2458C129.937 88.7539 129.717 89.1947 129.447 89.5684C129.186 89.9446 128.889 90.2246 128.557 90.4083C127.964 90.7406 127.378 90.9148 126.799 90.9309C126.224 90.9571 125.539 90.8363 124.743 90.5685C124.576 90.5124 124.432 90.4386 124.311 90.3472C124.187 90.2634 124.035 90.1402 123.853 89.9778C123.656 89.785 123.493 89.6543 123.364 89.5856C123.15 89.3447 122.98 89.009 122.855 88.5786C122.727 88.1557 122.655 87.7179 122.638 87.265C122.622 86.8121 122.665 86.434 122.767 86.1307C123.259 84.6673 124.11 83.7931 125.32 83.5081C125.66 83.4281 125.997 83.3898 126.334 83.3932C126.668 83.4043 126.979 83.4583 127.267 83.5552C128.04 83.8154 128.666 84.1777 129.142 84.6419C129.624 85.1164 129.942 85.6536 130.094 86.2536C130.169 86.608 130.21 86.9635 130.216 87.3202C130.228 87.6871 130.192 87.9956 130.108 88.2458ZM126.835 84.7266C126.425 84.5888 126.057 84.5663 125.731 84.659C125.402 84.7593 125.017 84.9505 124.576 85.2326C124.347 85.5102 124.195 85.6996 124.119 85.8005C124.05 85.9041 123.992 86.0279 123.943 86.1719C123.685 86.9378 123.689 87.6183 123.953 88.2135C124.217 88.8088 124.713 89.2288 125.44 89.4737C126.017 89.6676 126.493 89.7562 126.87 89.7396C127.247 89.7229 127.625 89.5924 128.002 89.3481C128.205 89.2221 128.386 89.0342 128.546 88.7842C128.704 88.5417 128.835 88.2651 128.94 87.9542C129.098 87.4841 129.094 87.0312 128.928 86.5956C128.77 86.1626 128.502 85.7811 128.123 85.4512C127.742 85.1288 127.313 84.8873 126.835 84.7266ZM127.641 94.7569C127.574 94.8937 127.479 94.9985 127.354 95.0715C127.226 95.1516 127.067 95.1588 126.877 95.093C126.266 94.9032 125.672 94.6809 125.093 94.4263C124.518 94.1824 123.874 93.8874 123.161 93.5413C122.859 93.3945 122.321 93.1018 121.547 92.6634C121.364 92.966 121.231 93.2037 121.147 93.3764C121.088 93.4987 120.971 93.7845 120.797 94.2337C120.711 94.503 120.622 94.7312 120.531 94.9183C120.447 95.091 120.352 95.2406 120.246 95.367C120.148 95.4969 120.026 95.62 119.88 95.7361C119.721 95.8453 119.551 95.8562 119.371 95.7688C119.227 95.6988 119.12 95.5891 119.05 95.4397C118.977 95.2974 118.97 95.1651 119.03 95.0427C119.072 94.9564 119.153 94.8267 119.272 94.6536C119.487 94.3398 119.67 94.0283 119.82 93.7189C119.869 93.6181 119.918 93.4995 119.966 93.363C120.018 93.2372 120.058 93.1455 120.086 93.0879C120.149 92.9047 120.222 92.7268 120.306 92.5541C120.477 92.2015 120.649 91.8936 120.821 91.6305C120.905 91.4936 121.029 91.3759 121.193 91.2774C121.364 91.1824 121.542 91.1804 121.729 91.2713C121.837 91.3237 122.107 91.4727 122.54 91.7183C123.256 92.1287 123.809 92.4284 124.197 92.6171C124.5 92.764 124.823 92.9034 125.168 93.0355C125.513 93.1675 125.731 93.2509 125.821 93.2856C126.464 93.5181 126.983 93.7304 127.379 93.9227C127.566 94.0136 127.682 94.1232 127.726 94.2515C127.767 94.387 127.738 94.5555 127.641 94.7569ZM124.471 100.83C124.39 100.959 124.284 101.053 124.153 101.113C124.017 101.179 123.858 101.17 123.676 101.084C123.089 100.831 122.521 100.548 121.972 100.234C121.425 99.9309 120.816 99.5699 120.144 99.1509C119.859 98.9732 119.354 98.6256 118.63 98.1083C118.417 98.3901 118.259 98.6124 118.158 98.7754C118.086 98.8908 117.94 99.1627 117.72 99.5912C117.606 99.85 117.494 100.068 117.384 100.244C117.282 100.407 117.172 100.546 117.053 100.66C116.942 100.779 116.807 100.889 116.651 100.989C116.48 101.081 116.31 101.074 116.14 100.968C116.005 100.883 115.91 100.763 115.856 100.607C115.799 100.458 115.806 100.326 115.878 100.21C115.928 100.129 116.022 100.008 116.16 99.8486C116.406 99.5592 116.62 99.2685 116.802 98.9766C116.861 98.8815 116.922 98.7687 116.985 98.638C117.05 98.5184 117.1 98.4314 117.134 98.3771C117.215 98.2015 117.306 98.0322 117.408 97.8693C117.615 97.5366 117.818 97.2485 118.017 97.0049C118.116 96.8776 118.251 96.7736 118.424 96.6928C118.604 96.6163 118.782 96.633 118.958 96.7431C119.06 96.8066 119.313 96.9831 119.717 97.2727C120.387 97.7561 120.905 98.1121 121.271 98.3407C121.556 98.5184 121.864 98.6911 122.193 98.8586C122.522 99.0261 122.729 99.1319 122.815 99.1759C123.43 99.4746 123.925 99.7403 124.298 99.9731C124.474 100.083 124.578 100.204 124.609 100.337C124.635 100.476 124.589 100.64 124.471 100.83ZM119.202 107.534C119.462 107.759 119.428 108.062 119.098 108.444C118.957 108.607 118.682 108.914 118.273 109.363C117.809 109.851 117.465 110.225 117.24 110.486C117.057 110.697 116.847 110.965 116.61 111.289C116.444 111.505 116.338 111.641 116.291 111.695C115.991 112.018 115.688 112.247 115.38 112.383C115.292 112.423 115.209 112.447 115.13 112.452C115.051 112.458 114.963 112.419 114.866 112.336C114.733 112.221 114.654 112.079 114.631 111.91C114.613 111.747 114.656 111.605 114.761 111.484C114.876 111.351 115.061 111.173 115.317 110.95C115.553 110.762 115.744 110.584 115.891 110.414C116.032 110.251 116.136 110.124 116.203 110.034C116.019 109.843 115.549 109.421 114.792 108.768C113.889 107.989 112.952 107.226 111.978 106.481L111.699 106.272C111.451 106.057 111.449 105.808 111.695 105.523C111.889 105.299 112.071 105.192 112.242 105.202C112.419 105.218 112.616 105.32 112.834 105.508C113.264 105.879 113.81 106.33 114.473 106.86C115.027 107.296 115.416 107.61 115.64 107.804C115.791 107.934 116.239 108.352 116.982 109.058L117.891 107.988C118.184 107.648 118.418 107.438 118.593 107.357C118.775 107.282 118.978 107.341 119.202 107.534ZM106.228 110.948C106.622 110.596 107.025 110.322 107.439 110.124C107.857 109.932 108.256 109.838 108.636 109.842C109.321 109.841 109.92 109.971 110.432 110.232C110.944 110.504 111.48 110.953 112.04 111.579C112.157 111.711 112.249 111.849 112.314 111.994C112.379 112.151 112.443 112.33 112.505 112.532C112.524 112.59 112.556 112.679 112.6 112.801C112.644 112.933 112.694 113.044 112.752 113.132C112.825 113.442 112.813 113.812 112.715 114.243C112.611 114.679 112.452 115.095 112.237 115.491C112.028 115.893 111.804 116.201 111.565 116.414C110.414 117.443 109.239 117.785 108.041 117.441C107.35 117.232 106.796 116.895 106.38 116.43C105.842 115.828 105.48 115.201 105.296 114.551C105.105 113.905 105.089 113.287 105.247 112.695C105.357 112.339 105.498 112.004 105.668 111.69C105.839 111.377 106.025 111.13 106.228 110.948ZM110.518 111.749C110.23 111.416 109.919 111.206 109.584 111.119C109.248 111.044 108.81 111.022 108.27 111.054C107.952 111.178 107.731 111.268 107.609 111.323C107.487 111.379 107.37 111.457 107.256 111.558C106.869 111.905 106.598 112.292 106.443 112.72C106.289 113.147 106.257 113.573 106.346 113.997C106.43 114.427 106.627 114.815 106.936 115.161C107.341 115.614 107.712 115.927 108.048 116.098C108.384 116.27 108.776 116.343 109.225 116.317C109.464 116.308 109.714 116.234 109.977 116.096C110.234 115.963 110.481 115.79 110.72 115.576C111.292 115.065 111.555 114.465 111.509 113.776C111.462 113.1 111.131 112.424 110.518 111.749ZM96.8402 119.677C96.7111 119.758 96.5843 119.766 96.4598 119.702C96.3328 119.649 96.2333 119.565 96.1615 119.449C96.0728 119.307 96.0333 119.19 96.0428 119.099C96.0498 119.02 96.0988 118.909 96.1899 118.768C96.3814 118.47 96.6301 118.188 96.936 117.922C97.2352 117.661 97.6361 117.374 98.1389 117.061C98.7436 116.686 99.2723 116.498 99.7252 116.499C100.175 116.511 100.549 116.642 100.845 116.891C101.141 117.14 101.418 117.472 101.676 117.887L102.075 118.529C102.349 118.97 102.603 119.401 102.836 119.822C103.062 120.246 103.307 120.753 103.57 121.343C103.725 121.699 103.742 122.014 103.62 122.287C103.502 122.568 103.318 122.786 103.066 122.942C102.795 123.111 102.425 123.35 101.958 123.66L101.078 124.221C100.718 124.445 100.446 124.599 100.264 124.685C100.035 124.771 99.8556 124.816 99.7267 124.821C99.5952 124.836 99.4915 124.783 99.4155 124.661C99.331 124.525 99.2962 124.363 99.3111 124.175C99.3191 123.991 99.4149 123.842 99.5983 123.728C99.809 123.597 100.12 123.422 100.531 123.205C100.942 122.987 101.246 122.817 101.443 122.694C101.687 122.542 101.878 122.409 102.015 122.296C102.197 122.164 102.318 122.056 102.378 121.971C102.438 121.887 102.45 121.799 102.413 121.709C102.073 120.951 101.8 120.405 101.593 120.072C101.431 120.144 101.265 120.233 101.095 120.339C100.877 120.474 100.529 120.724 100.049 121.088C99.6961 121.354 99.3975 121.564 99.1529 121.716C98.9966 121.813 98.8642 121.857 98.7557 121.849C98.6472 121.842 98.5634 121.79 98.5042 121.695C98.4113 121.546 98.3769 121.407 98.4009 121.279C98.425 121.151 98.5229 121.005 98.6945 120.842C98.9028 120.647 99.1887 120.417 99.5523 120.153C99.909 119.894 100.257 119.658 100.597 119.447C100.726 119.367 100.89 119.275 101.089 119.17C100.81 118.722 100.57 118.381 100.369 118.148C100.161 117.919 99.9409 117.778 99.7095 117.724C99.4713 117.674 99.2028 117.742 98.9038 117.928C98.2312 118.346 97.7325 118.741 97.4076 119.113C97.1856 119.392 96.9965 119.58 96.8402 119.677ZM92.578 128.452C92.4327 128.519 92.302 128.522 92.1858 128.461C92.0657 128.411 91.9705 128.309 91.9002 128.157C91.8232 127.99 91.7797 127.781 91.7698 127.53C91.917 127.18 92.0617 126.739 92.2039 126.207C92.3462 125.674 92.503 125.021 92.6745 124.246C91.9736 123.776 91.4226 123.431 91.0215 123.21C90.6238 122.997 90.2839 122.881 90.0017 122.861C89.8839 122.854 89.7511 122.862 89.6036 122.886C89.4131 122.912 89.2661 122.918 89.1628 122.904C89.0594 122.89 88.9843 122.832 88.9374 122.731C88.8437 122.527 88.8678 122.331 89.0099 122.142C89.1552 121.961 89.3623 121.808 89.6312 121.684C89.9799 121.523 90.4138 121.557 90.9327 121.785C91.4444 122.016 92.1121 122.404 92.9359 122.949C93.1158 122.135 93.2713 121.469 93.4023 120.951C93.5367 120.439 93.6739 120.011 93.8138 119.664C93.8445 119.597 93.9005 119.528 93.9815 119.455C94.0659 119.39 94.1408 119.342 94.2062 119.312C94.3661 119.238 94.5343 119.24 94.7108 119.317C94.88 119.398 95.0001 119.505 95.071 119.64C95.081 119.662 95.0745 119.753 95.0515 119.913C95.0285 120.074 94.9703 120.272 94.8768 120.509C94.7588 120.731 94.6365 121.087 94.5099 121.577C94.3761 122.07 94.2092 122.759 94.0091 123.644L94.5562 124C95.0332 124.308 95.3806 124.527 95.5984 124.656C95.8163 124.784 96.0051 124.869 96.1648 124.91C96.328 124.958 96.4749 124.952 96.6057 124.892C96.6493 124.872 96.7116 124.825 96.7927 124.753C96.8698 124.691 96.9375 124.646 96.9956 124.62C97.0755 124.583 97.1549 124.564 97.2337 124.563C97.4521 124.559 97.5982 124.637 97.6718 124.797C97.7053 124.869 97.7192 124.938 97.7136 125.002C97.7158 125.16 97.6511 125.335 97.5197 125.528C97.3844 125.731 97.1568 125.906 96.8371 126.053C96.5393 126.191 96.2462 126.233 95.9579 126.181C95.6696 126.129 95.3744 126.014 95.0722 125.836C94.7628 125.662 94.3157 125.37 93.7309 124.961C93.4602 126.266 93.253 127.155 93.1091 127.626C93.0284 127.91 92.9507 128.104 92.8757 128.209C92.8008 128.314 92.7016 128.395 92.578 128.452ZM85.5735 125.778C85.8704 125.682 86.1241 125.608 86.3346 125.557C86.5399 125.516 86.8136 125.466 87.1557 125.406L86.7802 124.203C86.7215 123.995 86.6308 123.701 86.5079 123.32C86.4441 123.122 86.4508 122.947 86.5282 122.796C86.6004 122.655 86.705 122.563 86.842 122.519C87.0933 122.438 87.2896 122.408 87.4311 122.429C87.575 122.459 87.674 122.557 87.7281 122.724C87.7993 122.945 87.881 123.264 87.9731 123.679C88.1694 124.574 88.4149 125.479 88.7097 126.392C88.9848 127.245 89.2707 128.04 89.5671 128.776C89.5939 128.885 89.5799 129.024 89.5252 129.193C89.4628 129.365 89.3541 129.484 89.1992 129.551C89.024 129.607 88.756 129.727 88.395 129.911C88.0187 130.1 87.7278 130.227 87.5222 130.293C86.8979 130.495 86.3948 130.59 86.0129 130.579C85.6234 130.57 85.2081 130.481 84.7669 130.312C84.1947 129.841 83.8692 129.484 83.7906 129.24C83.626 128.73 83.5826 128.244 83.6605 127.782C83.7383 127.32 83.9395 126.914 84.2642 126.566C84.5889 126.217 85.0253 125.954 85.5735 125.778ZM87.0263 129.382C87.2699 129.303 87.4782 129.219 87.6511 129.13C87.8188 129.05 88.0185 128.94 88.2501 128.798C87.9937 128.107 87.8138 127.602 87.7107 127.282C87.605 126.955 87.528 126.677 87.4796 126.449C87.1301 126.486 86.8565 126.524 86.6588 126.562C86.4636 126.608 86.2479 126.67 86.0119 126.746C85.4485 126.927 85.0993 127.2 84.9642 127.563C84.824 127.936 84.8166 128.317 84.9418 128.705C84.9787 128.819 85.0584 128.949 85.181 129.094C85.3035 129.24 85.4 129.33 85.4705 129.367C85.7351 129.483 85.9761 129.54 86.1937 129.537C86.4062 129.544 86.6837 129.492 87.0263 129.382ZM81.9374 131.886C81.6003 131.955 81.3684 131.818 81.2417 131.477C81.012 130.83 80.7982 130.02 80.6003 129.048L80.3104 127.564L80.2195 127.117C80.1205 126.631 80.0405 126.178 79.9794 125.758C79.6438 125.793 79.3467 125.837 79.088 125.89C78.8606 125.936 78.5604 126.006 78.1873 126.098L77.4724 126.256C77.2529 126.3 77.0702 126.325 76.9243 126.331C76.7722 126.345 76.6098 126.329 76.437 126.283C76.258 126.246 76.1486 126.129 76.1087 125.933C76.0768 125.776 76.099 125.625 76.1754 125.479C76.2439 125.334 76.3448 125.248 76.4781 125.221C76.5722 125.202 76.7243 125.187 76.9345 125.177C77.3141 125.157 77.6725 125.113 78.0095 125.044C78.1193 125.022 78.2431 124.988 78.381 124.944C78.5127 124.909 78.6099 124.885 78.6726 124.872C78.856 124.811 79.0417 124.761 79.2299 124.722C79.614 124.644 79.9629 124.593 80.2766 124.57C80.4366 124.554 80.6053 124.581 80.7829 124.651C80.962 124.729 81.0723 124.87 81.1138 125.074C81.1633 125.317 81.2129 125.621 81.2628 125.986C81.3719 126.682 81.4815 127.301 81.5916 127.842C81.6555 128.155 81.7358 128.49 81.8328 128.846C81.9297 129.202 81.9933 129.434 82.0234 129.542C82.2092 130.174 82.3483 130.717 82.4409 131.171C82.4824 131.375 82.4657 131.534 82.3907 131.647C82.308 131.762 82.1569 131.841 81.9374 131.886ZM72.3571 133.259C71.8227 133.3 71.3309 133.269 70.8819 133.167C70.4334 133.073 70.0599 132.909 69.7612 132.675C69.224 132.259 68.835 131.787 68.5943 131.26C68.3461 130.741 68.1901 130.063 68.1263 129.225C68.1129 129.05 68.1247 128.888 68.1616 128.741C68.1905 128.595 68.2444 128.406 68.3231 128.175C68.4239 127.919 68.4808 127.718 68.4937 127.573C68.632 127.281 68.8749 126.994 69.2223 126.711C69.5619 126.428 69.9369 126.191 70.3475 125.999C70.7581 125.807 71.123 125.699 71.4421 125.675C72.9816 125.558 74.1185 126.001 74.8529 127.004C75.0589 127.285 75.2259 127.581 75.3539 127.892C75.4739 128.204 75.5455 128.511 75.5686 128.814C75.6306 129.628 75.5408 130.345 75.2993 130.965C75.0503 131.594 74.6794 132.096 74.1864 132.47C73.8893 132.677 73.5778 132.853 73.2519 132.999C72.9186 133.152 72.6204 133.239 72.3571 133.259ZM74.3215 128.873C74.2886 128.443 74.1659 128.095 73.9531 127.83C73.7324 127.566 73.4062 127.286 72.9745 126.99C72.6297 126.888 72.396 126.822 72.2733 126.791C72.1512 126.768 72.0144 126.763 71.8628 126.774C71.0571 126.836 70.4317 127.104 69.9866 127.579C69.5414 128.054 69.348 128.675 69.4064 129.441C69.4526 130.047 69.5569 130.52 69.7192 130.861C69.8816 131.202 70.1489 131.498 70.5211 131.751C70.7162 131.888 70.96 131.982 71.2526 132.032C71.5373 132.082 71.8432 132.095 72.1702 132.07C72.6648 132.032 73.0803 131.852 73.4167 131.53C73.7538 131.215 74.0004 130.819 74.1566 130.342C74.3048 129.866 74.3598 129.376 74.3215 128.873ZM62.3406 128.898C62.088 128.41 61.8323 127.975 61.5737 127.592C61.3067 127.216 60.9566 126.751 60.5234 126.198C60.4707 126.139 60.4464 126.073 60.4505 126.001C60.4569 125.889 60.5262 125.797 60.6586 125.725C60.7829 125.652 60.933 125.62 61.1087 125.63C61.3563 125.644 61.6179 125.763 61.8936 125.987C62.1387 126.186 62.3525 126.442 62.5348 126.757C62.7172 127.072 62.9263 127.481 63.162 127.983C63.3483 128.37 63.4596 128.597 63.4959 128.663C63.8146 128.553 64.3064 128.501 64.9711 128.507C64.9866 128.235 64.9836 127.866 64.9621 127.4C64.9415 126.918 64.9374 126.57 64.9497 126.354C64.9579 126.21 65.0366 126.095 65.1859 126.007C65.3271 125.919 65.4856 125.88 65.6613 125.89C65.869 125.902 66.0239 125.995 66.1262 126.169C66.2252 126.399 66.2819 126.67 66.296 126.984C66.3102 127.297 66.305 127.669 66.2804 128.101C66.2544 128.556 66.1971 129.069 66.1084 129.641C66.024 130.278 65.9732 130.747 65.9559 131.051C65.9417 131.299 65.9468 131.631 65.971 132.049C65.9749 132.122 65.9798 132.246 65.9858 132.423C65.9917 132.599 65.9906 132.76 65.9824 132.903C65.976 133.015 65.9306 133.109 65.8462 133.184C65.7533 133.267 65.6581 133.322 65.5604 133.348C64.9075 133.415 64.2736 133.431 63.6586 133.396C62.6123 133.336 61.7569 133.091 61.0923 132.661C60.4277 132.23 60.1182 131.615 60.1638 130.817C60.1779 130.569 60.2475 130.333 60.3725 130.107C60.4891 129.89 60.6436 129.71 60.8359 129.569C61.3446 129.221 61.8461 128.998 62.3406 128.898ZM61.4197 130.924C61.3978 131.308 61.5837 131.631 61.9774 131.894C62.3706 132.165 62.9426 132.321 63.6934 132.364C64.0288 132.383 64.3626 132.362 64.6946 132.301L64.7175 131.689C64.7375 131.338 64.7691 130.995 64.8122 130.661C64.8553 130.327 64.8878 129.968 64.9096 129.585C64.772 129.609 64.6271 129.621 64.4749 129.62C64.3223 129.628 64.2217 129.634 64.1734 129.639C63.8201 129.651 63.5463 129.675 63.3519 129.712C62.9861 129.804 62.6848 129.887 62.4482 129.961C62.2031 130.044 61.976 130.163 61.7667 130.319C61.549 130.483 61.4334 130.685 61.4197 130.924ZM53.6789 125.25C53.6999 125.083 53.7402 124.969 53.7999 124.906C53.8582 124.851 53.9644 124.801 54.1187 124.754C54.3493 124.689 54.6132 124.666 54.9103 124.686C55.1995 124.704 55.5687 124.752 56.0179 124.83L56.8218 124.971C57.5232 125.093 58.0227 125.302 58.3203 125.598C58.6165 125.901 58.7784 126.23 58.8059 126.584C58.8334 126.938 58.8083 127.384 58.7305 127.923C58.7068 128.105 58.6639 128.374 58.602 128.729C58.4672 129.501 58.22 130.522 57.8604 131.791C57.755 132.162 57.5696 132.41 57.3043 132.534C57.0376 132.666 56.7545 132.706 56.455 132.654C56.2107 132.611 55.8114 132.55 55.257 132.469L54.2146 132.299C53.7891 132.225 53.4838 132.16 53.2988 132.103C53.0706 132.014 52.9029 131.928 52.7957 131.845C52.6871 131.769 52.6413 131.659 52.6581 131.516C52.6857 131.358 52.7637 131.214 52.8923 131.082C53.0209 130.95 53.1916 130.903 53.4044 130.94C53.6487 130.982 53.9966 131.059 54.4482 131.171C54.8998 131.282 55.2438 131.358 55.4802 131.4C55.693 131.437 55.8881 131.459 56.0656 131.465C56.289 131.488 56.4515 131.488 56.5529 131.465C56.6544 131.442 56.7173 131.384 56.7417 131.291C56.9783 130.447 57.1183 129.854 57.1617 129.513C56.9846 129.457 56.8054 129.414 56.6242 129.382C56.4429 129.351 56.1919 129.323 55.8712 129.3C55.791 129.294 55.6911 129.284 55.5715 129.272C55.4519 129.259 55.3173 129.239 55.1675 129.213C55.0808 129.198 54.9443 129.166 54.7579 129.117L54.3935 129.042C54.031 128.978 53.8724 128.817 53.9178 128.557C53.9453 128.399 54.0107 128.28 54.1139 128.201C54.2171 128.122 54.3832 128.077 54.6121 128.069C54.9212 128.066 55.4107 128.123 56.0805 128.24L56.8016 128.366C56.9514 128.392 57.1352 128.432 57.3531 128.486C57.3857 128.346 57.4255 128.142 57.4722 127.874C57.5328 127.527 57.5715 127.282 57.5883 127.139C57.661 126.583 57.3269 126.24 56.5861 126.111C56.334 126.067 56.0674 126.012 55.7864 125.947L55.3511 125.859C55.1462 125.823 54.9733 125.813 54.8325 125.829C54.6902 125.853 54.5533 125.87 54.4217 125.879C54.2809 125.895 54.1553 125.894 54.045 125.874C53.8952 125.848 53.7913 125.769 53.7331 125.637C53.6735 125.513 53.6555 125.384 53.6789 125.25ZM47.3277 128.097C46.8397 127.942 46.5116 127.733 46.3434 127.47C46.1675 127.204 46.1328 126.904 46.2393 126.568C46.3119 126.339 46.4367 126.131 46.6136 125.944C46.783 125.755 46.9859 125.618 47.2225 125.533C47.4515 125.446 47.6842 125.44 47.9206 125.516C48.4086 125.67 48.727 125.91 48.8759 126.234C49.0172 126.556 49.0297 126.9 48.9135 127.266C48.8143 127.579 48.623 127.824 48.3397 128.003C48.0539 128.189 47.7166 128.221 47.3277 128.097ZM37.6618 120.705C37.826 120.366 38.0467 120.113 38.3238 119.945C38.5902 119.781 38.9487 119.684 39.3991 119.654C39.7065 119.625 40.036 119.652 40.3876 119.733C40.7392 119.815 41.0769 119.935 41.4007 120.092C41.7318 120.253 42.0896 120.56 42.4742 121.013C42.743 121.357 42.9241 121.698 43.0175 122.037C43.1037 122.373 43.0787 122.681 42.9424 122.961C42.8481 123.156 42.7368 123.275 42.6085 123.319C42.4767 123.371 42.3136 123.35 42.1193 123.255C42.0186 123.206 41.9352 123.113 41.8692 122.974C41.7996 122.842 41.7733 122.732 41.7901 122.642C41.8326 122.298 41.7664 121.986 41.5913 121.705C41.4128 121.432 41.1365 121.204 40.7622 121.022C40.3304 120.813 39.9321 120.717 39.5674 120.736C39.1955 120.751 38.9449 120.892 38.8156 121.158C38.6898 121.417 38.7364 121.724 38.9552 122.079C39.174 122.435 39.4297 122.732 39.7224 122.972C40.1345 123.332 40.4804 123.691 40.76 124.049C41.0506 124.422 41.2231 124.79 41.2775 125.154C41.3318 125.519 41.2856 125.852 41.1389 126.154C41.0026 126.435 40.7674 126.672 40.4334 126.866C40.0958 127.066 39.7625 127.167 39.4333 127.167C39.2544 127.169 38.973 127.126 38.5892 127.037C38.1946 126.953 37.9182 126.872 37.7598 126.795C37.5511 126.694 37.333 126.557 37.1056 126.384C36.8782 126.211 36.708 126.04 36.5951 125.869C36.3658 125.536 36.2105 125.26 36.1293 125.043C36.048 124.825 36.0598 124.609 36.1646 124.393C36.2275 124.263 36.3338 124.173 36.4834 124.121C36.6259 124.066 36.8159 124.096 37.0534 124.211C37.111 124.239 37.1563 124.292 37.1894 124.37C37.2225 124.449 37.2578 124.559 37.2953 124.702C37.337 124.909 37.3997 125.064 37.4832 125.167C37.5737 125.255 37.7128 125.371 37.9005 125.516C38.0811 125.657 38.2505 125.766 38.4088 125.843C38.5815 125.927 38.7789 125.978 39.001 125.997C39.223 126.016 39.432 125.988 39.628 125.914C39.8132 125.844 39.9477 125.723 40.0316 125.55C40.1015 125.406 40.0978 125.249 40.0207 125.078C39.9329 124.911 39.8111 124.749 39.6554 124.594C39.4815 124.403 39.2843 124.213 39.0638 124.026C38.7817 123.765 38.5572 123.54 38.3904 123.353C38.213 123.169 38.0532 122.967 37.9111 122.746C37.6597 122.366 37.5091 122.027 37.4591 121.727C37.4055 121.434 37.4731 121.093 37.6618 120.705ZM29.0396 120.328C29.0165 120.142 29.0086 119.999 29.0158 119.899C29.023 119.799 29.0482 119.715 29.0914 119.648C29.1433 119.567 29.2577 119.508 29.4346 119.469C29.6048 119.427 29.7403 119.438 29.8413 119.502C29.9759 119.589 30.0706 119.678 30.1254 119.771C30.1802 119.863 30.2064 119.97 30.204 120.092C30.2021 120.376 30.2356 120.65 30.3044 120.913C30.3688 121.182 30.5424 121.408 30.825 121.59C31.101 121.767 31.4516 121.902 31.8771 121.995C32.3025 122.087 32.6565 122.091 32.9391 122.007C33.588 121.796 34.1481 121.324 34.6196 120.59C34.9958 120.005 35.1363 119.387 35.0411 118.736C34.9343 118.059 34.5881 117.532 34.0026 117.156C33.7334 116.983 33.4103 116.842 33.0335 116.733C32.6455 116.626 32.286 116.623 31.9548 116.724L31.9649 116.731C31.7616 116.781 31.5691 116.747 31.3874 116.63C31.2797 116.561 31.209 116.449 31.1754 116.294C31.135 116.135 31.145 116.009 31.2056 115.914C31.2705 115.814 31.3457 115.733 31.4312 115.674C31.5057 115.618 31.6136 115.568 31.7549 115.526C32.2255 115.4 32.7151 115.415 33.2236 115.571C33.7212 115.729 34.2425 115.983 34.7876 116.334C35.2385 116.623 35.6034 117.01 35.8823 117.494C36.1544 117.973 36.3191 118.464 36.3764 118.966C36.3856 119.248 36.3373 119.612 36.2317 120.057C36.1149 120.505 35.983 120.844 35.836 121.073C35.4597 121.658 35.0154 122.157 34.5031 122.57C33.9797 122.985 33.438 123.236 32.878 123.323C32.5041 123.387 32.0604 123.33 31.547 123.152C31.0336 122.974 30.5918 122.766 30.2217 122.528C29.9256 122.338 29.7013 122.132 29.5489 121.911C29.3854 121.691 29.2717 121.462 29.2078 121.221C29.1395 120.987 29.0834 120.689 29.0396 120.328ZM25.9032 113.637C26.1373 112.283 26.2473 111.145 26.2332 110.22C26.2257 110.13 26.2478 110.055 26.2995 109.994C26.3668 109.914 26.4725 109.888 26.6167 109.916C26.766 109.938 26.9048 110.003 27.033 110.112C27.2223 110.272 27.3596 110.524 27.4449 110.869C27.5105 111.114 27.52 111.4 27.4734 111.727C27.4215 112.06 27.3363 112.471 27.2177 112.957L27.1097 113.4C27.0254 113.822 26.9778 114.07 26.967 114.144C27.1478 114.203 27.3371 114.295 27.5348 114.421C27.7325 114.546 27.9673 114.709 28.2392 114.907C28.8888 114.116 29.3455 113.564 29.6092 113.253C29.7074 113.137 29.8303 113.078 29.9778 113.078C30.1201 113.083 30.2554 113.14 30.3836 113.248C30.5423 113.383 30.6101 113.55 30.587 113.751C30.5277 113.994 30.3455 114.296 30.0405 114.656L29.4651 115.317C29.1135 115.732 28.7709 116.118 28.4372 116.475C28.0113 116.953 27.7002 117.308 27.5037 117.54L27.099 117.999C26.9801 118.139 26.8677 118.291 26.7619 118.453C26.8338 118.566 26.8805 118.684 26.902 118.807C26.9184 118.936 26.893 119.041 26.8257 119.12C26.6965 119.273 26.5433 119.342 26.3662 119.328C26.1778 119.316 25.9878 119.249 25.7962 119.129C25.2345 118.789 24.7187 118.42 24.2486 118.022C23.4489 117.345 22.9132 116.634 22.6416 115.891C22.37 115.147 22.4927 114.47 23.0097 113.859C23.17 113.67 23.3678 113.523 23.6032 113.418C23.8274 113.315 24.0588 113.264 24.2974 113.267C24.9067 113.291 25.442 113.414 25.9032 113.637ZM23.9571 114.709C23.7089 115.002 23.6629 115.372 23.8191 115.819C23.9641 116.266 24.3235 116.733 24.8973 117.219C25.1476 117.431 25.4298 117.618 25.744 117.779C25.918 117.549 26.0437 117.388 26.1213 117.297C26.2764 117.114 26.5109 116.861 26.8249 116.54C27.1266 116.209 27.3654 115.939 27.5412 115.732C27.1322 115.385 26.695 115.109 26.2295 114.904C25.8937 114.756 25.6032 114.641 25.358 114.559C25.1128 114.477 24.8596 114.435 24.5984 114.434C24.326 114.434 24.1122 114.526 23.9571 114.709ZM17.6003 111.621C17.2411 111.223 16.9646 110.815 16.7707 110.398C16.5709 109.985 16.4723 109.589 16.4747 109.21C16.4755 108.53 16.6108 107.934 16.8806 107.421C17.1391 106.908 17.5801 106.369 18.2037 105.807C18.3343 105.689 18.4692 105.599 18.6082 105.538C18.7419 105.472 18.9241 105.399 19.1547 105.32C19.4192 105.243 19.6129 105.165 19.7359 105.086C20.0509 105.017 20.4268 105.034 20.8634 105.135C21.2946 105.231 21.7117 105.383 22.1146 105.59C22.5174 105.798 22.8261 106.02 23.0405 106.258C24.0751 107.404 24.4202 108.574 24.0758 109.769C23.9794 110.104 23.8472 110.417 23.6794 110.709C23.5062 110.994 23.3067 111.239 23.0811 111.443C22.4753 111.99 21.8533 112.357 21.2149 112.545C20.5653 112.733 19.9415 112.746 19.3437 112.586C18.998 112.477 18.6681 112.339 18.3539 112.17C18.0284 112 17.7772 111.817 17.6003 111.621ZM22.2716 110.492C22.5922 110.203 22.7922 109.893 22.8714 109.563C22.9452 109.227 22.9672 108.797 22.9373 108.275C22.8072 107.94 22.7168 107.714 22.6661 107.598C22.6094 107.488 22.5302 107.376 22.4283 107.263C21.8869 106.663 21.2921 106.333 20.6438 106.271C19.9956 106.21 19.3864 106.436 18.8163 106.951C18.365 107.358 18.0542 107.73 17.8841 108.067C17.7139 108.404 17.6428 108.797 17.6708 109.246C17.6813 109.484 17.7563 109.734 17.8958 109.996C18.03 110.253 18.2069 110.502 18.4267 110.746C18.7591 111.114 19.1557 111.333 19.6167 111.401C20.0717 111.476 20.5357 111.429 21.0088 111.26C21.4765 111.086 21.8974 110.83 22.2716 110.492ZM13.143 106.303C13.056 106.178 13.0109 106.044 13.0078 105.9C13.0001 105.749 13.0714 105.607 13.2216 105.472C13.6848 105.032 14.1687 104.621 14.6731 104.239C15.1664 103.856 15.7377 103.437 16.3871 102.984C16.6625 102.792 17.1804 102.464 17.9405 102.002C17.7652 101.695 17.6226 101.463 17.5127 101.305C17.4348 101.194 17.2421 100.953 16.9345 100.582C16.7414 100.375 16.5853 100.187 16.4662 100.016C16.3563 99.8586 16.2719 99.7029 16.2131 99.5488C16.1477 99.3993 16.0997 99.2328 16.0692 99.0492C16.0517 98.8565 16.1249 98.7029 16.2889 98.5884C16.4201 98.4968 16.5679 98.457 16.7324 98.469C16.8923 98.4744 17.0112 98.5329 17.0891 98.6444C17.144 98.7231 17.2179 98.8569 17.3108 99.0458C17.4801 99.3861 17.6633 99.6973 17.8602 99.9793C17.9244 100.071 18.0042 100.172 18.0998 100.28C18.1842 100.387 18.2447 100.467 18.2814 100.52C18.411 100.663 18.5307 100.814 18.6406 100.971C18.8651 101.293 19.0502 101.593 19.196 101.871C19.2745 102.012 19.3169 102.177 19.3232 102.368C19.323 102.563 19.2376 102.72 19.0671 102.84C18.9687 102.908 18.707 103.071 18.282 103.329C17.5744 103.755 17.0435 104.092 16.6893 104.339C16.4138 104.531 16.1343 104.746 15.8509 104.983C15.5675 105.22 15.3888 105.369 15.3146 105.431C14.7983 105.879 14.3598 106.229 13.9991 106.481C13.8285 106.6 13.6764 106.648 13.5427 106.624C13.4045 106.594 13.2712 106.487 13.143 106.303ZM9.38898 100.59C9.31527 100.457 9.2843 100.319 9.29607 100.175C9.30397 100.024 9.38955 99.89 9.55282 99.772C10.059 99.3816 10.5826 99.0226 11.1237 98.6952C11.6539 98.3646 12.2653 98.0073 12.958 97.6232C13.2518 97.4603 13.8006 97.188 14.6044 96.8063C14.4617 96.483 14.3438 96.2373 14.2507 96.0694C14.1847 95.9505 14.0179 95.6908 13.7501 95.2904C13.5794 95.065 13.4436 94.8613 13.3427 94.6794C13.2496 94.5114 13.1817 94.3478 13.1391 94.1885C13.0895 94.033 13.059 93.8625 13.0475 93.6767C13.05 93.4833 13.1387 93.338 13.3136 93.241C13.4535 93.1635 13.6047 93.1391 13.767 93.168C13.9255 93.1899 14.0377 93.2603 14.1037 93.3792C14.1503 93.4632 14.21 93.6039 14.2828 93.8013C14.4162 94.1573 14.5663 94.4857 14.7331 94.7866C14.7874 94.8845 14.8565 94.9926 14.9403 95.1107C15.0132 95.2258 15.0652 95.3113 15.0963 95.3673C15.2104 95.5236 15.314 95.6857 15.4071 95.8536C15.5972 96.1964 15.7504 96.514 15.8667 96.8062C15.9303 96.9539 15.9554 97.1229 15.942 97.3133C15.9217 97.5075 15.8205 97.6551 15.6386 97.7559C15.5337 97.8141 15.2565 97.9495 14.8073 98.162C14.0595 98.5126 13.4967 98.7927 13.1189 99.0022C12.825 99.1651 12.5249 99.3498 12.2186 99.5562C11.9123 99.7627 11.7191 99.8927 11.639 99.9462C11.0792 100.339 10.6069 100.642 10.2221 100.855C10.0402 100.956 9.88401 100.988 9.7535 100.951C9.61911 100.906 9.4976 100.786 9.38898 100.59ZM6.08791 92.6904C5.76437 92.8073 5.51699 92.6287 5.34577 92.1547C5.27238 91.9515 5.13994 91.5613 4.94844 90.984C4.75024 90.3411 4.5927 89.8579 4.47584 89.5344C4.38071 89.271 4.25016 88.9567 4.08417 88.5914C3.97672 88.341 3.91076 88.1819 3.8863 88.1142C3.75187 87.6949 3.70073 87.3179 3.73289 86.983C3.74061 86.8867 3.7613 86.8027 3.79494 86.731C3.82859 86.6593 3.9056 86.6017 4.02599 86.5582C4.19152 86.4984 4.35351 86.4994 4.51194 86.5613C4.66286 86.6259 4.76549 86.7334 4.81985 86.8839C4.87964 87.0494 4.94404 87.2983 5.01304 87.6307C5.06093 87.9281 5.12292 88.1821 5.19902 88.3928C5.2724 88.596 5.33188 88.7488 5.37745 88.8515C5.63391 88.7843 6.23239 88.5809 7.17292 88.2412C8.29402 87.8362 9.41795 87.392 10.5447 86.9084L10.8638 86.7677C11.1723 86.6562 11.3904 86.7773 11.5182 87.131C11.6187 87.4094 11.6227 87.6206 11.5301 87.7646C11.43 87.9113 11.2446 88.0336 10.9737 88.1314C10.4395 88.3244 9.77901 88.58 8.99232 88.8982C8.34106 89.1674 7.87624 89.3523 7.59784 89.4529C7.40974 89.5209 6.82598 89.7062 5.84658 90.0089L6.33484 91.3253C6.48704 91.7467 6.55541 92.0537 6.53996 92.2464C6.51699 92.4419 6.3663 92.5899 6.08791 92.6904ZM9.47855 79.7046C9.59113 80.2205 9.63181 80.707 9.60058 81.1642C9.56153 81.6231 9.4468 82.0166 9.2564 82.3447C8.92006 82.9422 8.51223 83.3997 8.03291 83.7172C7.54407 84.0286 6.88931 84.2738 6.06863 84.453C5.89668 84.4905 5.73133 84.502 5.57259 84.4875C5.40433 84.4669 5.21702 84.4341 5.01068 84.3891C4.95085 84.3776 4.85719 84.3612 4.72972 84.3399C4.59272 84.3124 4.47171 84.302 4.36669 84.3085C4.06072 84.2198 3.7443 84.0268 3.41742 83.7297C3.08884 83.4247 2.80509 83.0813 2.56617 82.6995C2.31944 82.3193 2.16196 81.973 2.09372 81.6603C1.76449 80.1518 2.04493 78.9606 2.93506 78.0867C3.45671 77.588 4.02236 77.2721 4.63201 77.1391C5.42143 76.9668 6.14471 76.9604 6.80184 77.12C7.45727 77.2717 8.00371 77.5618 8.44116 77.9904C8.69697 78.2621 8.91933 78.5493 9.10822 78.852C9.2971 79.1547 9.42055 79.4389 9.47855 79.7046ZM6.67009 83.0443C7.10167 82.9583 7.43769 82.7908 7.67812 82.5418C7.90903 82.2867 8.14342 81.9162 8.38128 81.4303C8.43029 81.0921 8.46068 80.8562 8.47247 80.7226C8.48425 80.589 8.47394 80.448 8.44153 80.2994C8.33065 79.7914 8.12704 79.365 7.83072 79.0203C7.53439 78.6755 7.17952 78.4377 6.76611 78.3069C6.35099 78.1682 5.91677 78.1483 5.46344 78.2473C4.86943 78.3769 4.41497 78.5457 4.10006 78.7536C3.78516 78.9616 3.52845 79.2673 3.32995 79.671C3.22068 79.8831 3.16158 80.1376 3.15265 80.4343C3.14201 80.7232 3.17081 81.024 3.23905 81.3367C3.40281 82.087 3.79564 82.6113 4.41754 82.9095C5.02992 83.2017 5.78077 83.2466 6.67009 83.0443ZM6.54021 67.2245C6.5349 67.0725 6.59095 66.9585 6.70836 66.8824C6.81749 66.7985 6.94002 66.7542 7.07594 66.7494C7.24383 66.7436 7.36474 66.7673 7.43865 66.8208C7.50429 66.8665 7.57575 66.9641 7.65302 67.1135C7.81611 67.428 7.93663 67.784 8.01457 68.1815C8.09224 68.571 8.14142 69.0616 8.16212 69.6532C8.18701 70.3648 8.08624 70.9167 7.85981 71.3088C7.62511 71.6933 7.32597 71.9519 6.96239 72.0847C6.59881 72.2175 6.17317 72.2924 5.68546 72.3094L4.92993 72.3359C4.41024 72.3541 3.91013 72.3595 3.42958 72.3523C2.94876 72.3371 2.387 72.2968 1.74432 72.2312C1.35859 72.1886 1.07745 72.0464 0.900883 71.8044C0.71632 71.5627 0.618864 71.294 0.608516 70.9981C0.597329 70.6783 0.573952 70.2389 0.538384 69.6798L0.489892 68.6368C0.475069 68.2131 0.476154 67.9009 0.493148 67.7002C0.532728 67.4586 0.582541 67.2808 0.642586 67.1666C0.694357 67.0447 0.792198 66.9813 0.93611 66.9762C1.09601 66.9706 1.25387 67.0211 1.4097 67.1278C1.56524 67.2264 1.64679 67.3836 1.65434 67.5995C1.66301 67.8473 1.65946 68.2037 1.64371 68.6685C1.62795 69.1334 1.62412 69.4817 1.63223 69.7136C1.6423 70.0014 1.66241 70.2328 1.69254 70.4079C1.71636 70.6312 1.74994 70.7901 1.79327 70.8846C1.8366 70.9792 1.90652 71.0328 2.00302 71.0454C2.83043 71.1285 3.44002 71.1632 3.83178 71.1495C3.84961 70.9728 3.85503 70.7845 3.84804 70.5846C3.83909 70.3288 3.79614 69.902 3.7192 69.3043C3.66384 68.866 3.63113 68.5029 3.62106 68.2151C3.61463 68.0312 3.64186 67.8942 3.70274 67.804C3.76363 67.7138 3.85003 67.6668 3.96196 67.6629C4.13786 67.6567 4.27531 67.6959 4.37433 67.7805C4.47335 67.8651 4.5509 68.0225 4.60698 68.2527C4.67273 68.5305 4.72943 68.8928 4.77707 69.3394C4.82444 69.778 4.85511 70.1972 4.86909 70.5969C4.87441 70.7488 4.87299 70.937 4.86483 71.1614C5.3925 71.143 5.80741 71.1044 6.10955 71.0458C6.4114 70.9793 6.64334 70.8591 6.80537 70.6853C6.96711 70.5035 7.04183 70.2368 7.02953 69.885C7.00184 69.0935 6.90779 68.4644 6.74737 67.9977C6.6157 67.6661 6.54665 67.4083 6.54021 67.2245ZM1.02257 59.1893C1.03618 59.0299 1.0982 58.9147 1.20863 58.8439C1.31177 58.7644 1.44703 58.7318 1.61442 58.7461C1.79776 58.7617 2.00092 58.8272 2.22391 58.9426C2.45516 59.2434 2.76704 59.5872 3.15956 59.974C3.55207 60.3608 4.04277 60.8202 4.63164 61.3522C5.38646 60.975 5.95878 60.6666 6.34858 60.4269C6.73042 60.1865 6.99964 59.9486 7.15625 59.713C7.22089 59.6142 7.27927 59.4947 7.33137 59.3546C7.40282 59.1761 7.47019 59.0453 7.53348 58.9624C7.59676 58.8795 7.6842 58.8428 7.79579 58.8523C8.01898 58.8714 8.17752 58.9893 8.27142 59.2061C8.35735 59.4222 8.38772 59.6777 8.36254 59.9726C8.32987 60.3552 8.08631 60.7158 7.63185 61.0544C7.17808 61.385 6.5106 61.7736 5.62941 62.2202C6.24812 62.7789 6.75043 63.2433 7.13634 63.6135C7.51427 63.983 7.8192 64.3141 8.05113 64.6069C8.0942 64.6668 8.12724 64.7499 8.15028 64.8563C8.16535 64.9619 8.16981 65.0506 8.16369 65.1224C8.14872 65.2977 8.06405 65.443 7.90968 65.5583C7.75599 65.6656 7.60308 65.7168 7.45095 65.7119C7.42704 65.7098 7.35107 65.6592 7.22305 65.5599C7.09503 65.4607 6.95117 65.3119 6.79146 65.1136C6.65703 64.9014 6.40813 64.6192 6.04478 64.267C5.68211 63.9068 5.16556 63.4211 4.49513 62.8099L3.91552 63.1096C3.4114 63.3717 3.04959 63.5656 2.83009 63.6914C2.6106 63.8172 2.44359 63.9394 2.32908 64.0581C2.20659 64.1761 2.13923 64.3069 2.12698 64.4503C2.12289 64.4982 2.13237 64.5753 2.1554 64.6816C2.17115 64.7793 2.1763 64.86 2.17086 64.9238C2.16337 65.0115 2.14062 65.0898 2.10261 65.1588C1.99791 65.3506 1.85789 65.439 1.68252 65.4241C1.60281 65.4173 1.53642 65.3955 1.48335 65.3589C1.34531 65.2829 1.22502 65.1401 1.12247 64.9306C1.01263 64.7125 0.972687 64.4281 1.00263 64.0773C1.03054 63.7505 1.1384 63.4747 1.32621 63.2499C1.51402 63.025 1.75991 62.8252 2.06388 62.6504C2.36853 62.4677 2.84305 62.2232 3.48745 61.9169C2.48671 61.0366 1.81697 60.4173 1.47821 60.0592C1.27135 59.8489 1.14081 59.6852 1.08657 59.5681C1.03233 59.4511 1.011 59.3248 1.02257 59.1893ZM6.831 54.414C6.76601 54.7191 6.70318 54.9756 6.64254 55.1836C6.57573 55.382 6.48302 55.6445 6.36441 55.9709L7.59427 56.2451C7.80386 56.298 8.10427 56.366 8.49549 56.4494C8.69893 56.4927 8.84683 56.5855 8.9392 56.7279C9.02541 56.8608 9.05352 56.9976 9.02352 57.1385C8.96852 57.3967 8.89639 57.5817 8.80713 57.6936C8.71004 57.8038 8.57543 57.8405 8.40329 57.8039C8.17638 57.7555 7.85974 57.6677 7.45338 57.5402C6.57972 57.2641 5.67342 57.0261 4.73449 56.8261C3.85815 56.6395 3.02683 56.491 2.24054 56.3808C2.13267 56.3496 2.01914 56.2682 1.89997 56.1365C1.78246 55.9969 1.73338 55.8433 1.75273 55.6757C1.79106 55.4957 1.82059 55.2035 1.84133 54.7989C1.8654 54.3787 1.89993 54.063 1.94493 53.8517C2.08159 53.2101 2.25002 52.7266 2.45021 52.4012C2.65206 52.0679 2.93607 51.7521 3.30224 51.4539C3.99588 51.1926 4.4679 51.0887 4.71828 51.142C5.24252 51.2537 5.68558 51.4585 6.04745 51.7564C6.40932 52.0543 6.66038 52.4309 6.80063 52.8861C6.94088 53.3413 6.951 53.8506 6.831 54.414ZM2.98255 53.8764C2.92922 54.1268 2.8982 54.3492 2.8895 54.5437C2.87464 54.7286 2.87101 54.9569 2.87861 55.2284C3.60513 55.3505 4.1327 55.4465 4.46133 55.5165C4.79778 55.5881 5.07696 55.6599 5.29887 55.7317C5.44096 55.4102 5.54457 55.1542 5.60971 54.9636C5.66702 54.7713 5.72151 54.5539 5.77317 54.3113C5.8965 53.7323 5.8345 53.2938 5.58717 52.9957C5.33368 52.6882 5.00741 52.4919 4.60836 52.4069C4.491 52.3819 4.33875 52.3863 4.15161 52.42C3.96447 52.4538 3.83768 52.4922 3.77124 52.5353C3.53846 52.7066 3.3691 52.8872 3.26317 53.0774C3.15109 53.258 3.05755 53.5243 2.98255 53.8764ZM3.34763 48.2194C3.45614 47.893 3.69005 47.76 4.04933 47.8204C4.72489 47.9438 5.53335 48.162 6.4747 48.4749L7.90571 48.9633L8.33842 49.1072C8.8091 49.2636 9.24182 49.4201 9.6366 49.5766C9.77296 49.2679 9.88278 48.9883 9.96606 48.7377C10.0393 48.5176 10.1288 48.2228 10.2348 47.8534L10.4543 47.1549C10.525 46.9424 10.5944 46.7716 10.6626 46.6425C10.7257 46.5033 10.8205 46.3704 10.9469 46.2438C11.0682 46.1071 11.2238 46.0703 11.4135 46.1334C11.5654 46.1839 11.6856 46.2786 11.7743 46.4177C11.8655 46.5492 11.8896 46.6794 11.8467 46.8085C11.8164 46.8996 11.7533 47.0388 11.6573 47.2261C11.4855 47.5652 11.3454 47.898 11.2369 48.2244C11.2016 48.3307 11.1688 48.4547 11.1385 48.5964C11.1032 48.728 11.0755 48.8241 11.0553 48.8849C11.0175 49.0746 10.9683 49.2606 10.9077 49.4428C10.7841 49.8148 10.6541 50.1425 10.5177 50.426C10.452 50.5727 10.3446 50.7056 10.1954 50.8247C10.0387 50.9412 9.86162 50.9666 9.66424 50.901C9.4289 50.8228 9.14042 50.7142 8.79878 50.5753C8.14082 50.3229 7.54993 50.1096 7.02612 49.9355C6.72246 49.8345 6.39224 49.7374 6.03546 49.6441C5.67867 49.5508 5.44588 49.4902 5.33708 49.4625C4.69691 49.3087 4.15667 49.1586 3.71636 49.0122C3.51898 48.9466 3.38988 48.8531 3.32907 48.7317C3.27078 48.6028 3.27696 48.432 3.34763 48.2194ZM6.95157 39.217C7.18402 38.734 7.45692 38.3238 7.77028 37.9863C8.07643 37.6453 8.40556 37.4042 8.75766 37.2629C9.38712 37.0065 9.99031 36.9062 10.5672 36.9619C11.1404 37.0069 11.8054 37.2116 12.5623 37.5759C12.7209 37.6522 12.8547 37.7432 12.9636 37.8489C13.076 37.9474 13.2123 38.0885 13.3726 38.2721C13.544 38.4878 13.6894 38.6377 13.8087 38.7217C13.9916 38.9873 14.1186 39.3414 14.1897 39.784C14.2643 40.2195 14.2817 40.6629 14.242 41.1143C14.2023 41.5658 14.113 41.9357 13.9743 42.224C13.3047 43.6153 12.3519 44.3775 11.1159 44.5106C10.7694 44.548 10.4294 44.5442 10.0959 44.4992C9.76596 44.4469 9.46401 44.3548 9.19008 44.223C8.45481 43.8691 7.87929 43.4323 7.46355 42.9126C7.04406 42.3822 6.79569 41.8099 6.71844 41.1956C6.68794 40.8347 6.69149 40.4768 6.72907 40.122C6.76292 39.7566 6.83708 39.4549 6.95157 39.217ZM9.76374 43.1141C10.153 43.3014 10.5154 43.3693 10.851 43.3177C11.19 43.2589 11.5958 43.1168 12.0683 42.8915C12.3293 42.6442 12.5039 42.4752 12.592 42.3844C12.6728 42.2901 12.7462 42.1745 12.8121 42.0376C13.1626 41.3095 13.2436 40.6338 13.0553 40.0105C12.867 39.3872 12.4268 38.909 11.7348 38.5759C11.1869 38.3122 10.7249 38.1653 10.3488 38.1352C9.97262 38.1051 9.58206 38.188 9.17711 38.3837C8.96035 38.4836 8.75709 38.6477 8.56731 38.876C8.38101 39.097 8.21674 39.3553 8.07449 39.6509C7.85939 40.0978 7.80714 40.5477 7.91774 41.0004C8.02113 41.4497 8.24024 41.8615 8.57507 42.2357C8.91337 42.6027 9.3096 42.8955 9.76374 43.1141ZM15.7617 32.734C16.3098 32.7611 16.8146 32.7595 17.276 32.7292C17.7352 32.6878 18.3129 32.6194 19.0093 32.524C19.087 32.5082 19.1558 32.5202 19.2158 32.5599C19.3092 32.6218 19.3539 32.7281 19.3499 32.879C19.3504 33.0232 19.3021 33.1687 19.2049 33.3155C19.068 33.5223 18.8333 33.6883 18.5009 33.8136C18.2061 33.9255 17.8768 33.9809 17.5129 33.9798C17.149 33.9788 16.6908 33.9536 16.1381 33.9043C15.7098 33.8702 15.4579 33.8521 15.3825 33.8501C15.3169 34.1809 15.1142 34.632 14.7744 35.2033C15.0012 35.3535 15.3212 35.5366 15.7346 35.7527C16.1613 35.9777 16.4648 36.1498 16.6449 36.2691C16.7649 36.3486 16.8252 36.4748 16.8258 36.6479C16.8308 36.8143 16.7847 36.9709 16.6875 37.1176C16.5727 37.2911 16.4143 37.3781 16.2124 37.3787C15.9638 37.3485 15.7006 37.2605 15.4228 37.115C15.1449 36.9694 14.8259 36.7774 14.4657 36.5389C14.0855 36.2872 13.6707 35.979 13.2214 35.6143C12.7142 35.2209 12.3339 34.9403 12.0805 34.7725C11.8737 34.6356 11.5836 34.4723 11.2102 34.2827C11.1458 34.2496 11.0358 34.1912 10.8802 34.1074C10.7246 34.0235 10.5868 33.9419 10.4667 33.8624C10.3733 33.8005 10.3154 33.7142 10.2928 33.6033C10.268 33.4814 10.2688 33.3715 10.2951 33.2738C10.5661 32.6761 10.8717 32.1204 11.2117 31.6068C11.7903 30.733 12.4329 30.1174 13.1396 29.7602C13.8463 29.4029 14.5331 29.4451 15.2002 29.8868C15.4069 30.0237 15.5761 30.2029 15.7078 30.4244C15.8371 30.6347 15.9144 30.8586 15.9395 31.0959C15.9836 31.7104 15.9243 32.2564 15.7617 32.734ZM14.4745 30.9175C14.1544 30.7055 13.7816 30.7034 13.3562 30.9111C12.9242 31.1144 12.5006 31.5295 12.0855 32.1565C11.9 32.4367 11.7501 32.7356 11.6357 33.0532L12.1526 33.3811C12.4461 33.5754 12.7263 33.7753 12.9932 33.9808C13.2601 34.1863 13.5537 34.3951 13.8738 34.6071C13.9222 34.476 13.9851 34.3449 14.0623 34.2138C14.1329 34.0782 14.1781 33.9882 14.1979 33.9437C14.3656 33.6326 14.4824 33.3837 14.5483 33.1971C14.6537 32.8351 14.7337 32.5331 14.7884 32.2911C14.8409 32.038 14.8523 31.7817 14.8226 31.5221C14.7907 31.2516 14.6747 31.05 14.4745 30.9175ZM23.2995 27.1036C23.4326 27.2064 23.5111 27.2994 23.5348 27.3827C23.5524 27.4607 23.542 27.5779 23.5034 27.7342C23.4426 27.9661 23.3285 28.2051 23.161 28.4513C22.9987 28.6913 22.7698 28.985 22.4742 29.3322L21.9453 29.9536C21.4838 30.4958 21.0502 30.82 20.6444 30.9264C20.2326 31.0276 19.8672 31.0003 19.5482 30.8443C19.2292 30.6883 18.8574 30.4401 18.4328 30.0997C18.2875 29.9866 18.0778 29.8133 17.8036 29.58C17.2066 29.0718 16.4527 28.3407 15.5417 27.3867C15.2752 27.1074 15.1558 26.8219 15.1834 26.5302C15.205 26.2334 15.3143 25.9692 15.5113 25.7377C15.6721 25.5489 15.9278 25.2361 16.2786 24.7993L16.954 23.9873C17.234 23.6584 17.4453 23.4286 17.5881 23.2979C17.7802 23.1463 17.9395 23.0455 18.066 22.9956C18.1864 22.9405 18.3041 22.9566 18.4189 23.0439C18.5408 23.1476 18.6258 23.2883 18.6742 23.466C18.7225 23.6437 18.6767 23.8148 18.5367 23.9793C18.3759 24.1681 18.133 24.4289 17.8079 24.7614C17.4827 25.094 17.2424 25.3517 17.0868 25.5345C16.9468 25.699 16.8289 25.856 16.7331 26.0056C16.6001 26.1865 16.5177 26.3265 16.486 26.4255C16.4542 26.5246 16.4723 26.6082 16.5402 26.6765C17.1472 27.3088 17.5868 27.7303 17.8592 27.9411C17.9967 27.8165 18.1251 27.6842 18.2444 27.544C18.3636 27.4039 18.5148 27.2017 18.6978 26.9372C18.7436 26.8711 18.8023 26.7898 18.874 26.6932C18.9457 26.5967 19.0308 26.4905 19.1293 26.3748C19.1864 26.3078 19.2832 26.2063 19.4198 26.0705L19.6701 25.795C19.9086 25.5148 20.1284 25.4602 20.3294 25.6313C20.4513 25.7351 20.5202 25.8515 20.5363 25.9808C20.5524 26.11 20.5061 26.2755 20.3974 26.4771C20.243 26.7449 19.9455 27.1377 19.5047 27.6556L19.0302 28.213C18.9317 28.3287 18.8038 28.4667 18.6464 28.6269C18.7509 28.7263 18.9067 28.8642 19.1138 29.0405C19.3818 29.2686 19.5733 29.4263 19.6881 29.5136C20.1301 29.8583 20.5948 29.7443 21.0822 29.1717C21.2482 28.9767 21.4306 28.7748 21.6294 28.5659L21.9263 28.2355C22.0612 28.0771 22.1574 27.9332 22.2151 27.8037C22.2667 27.669 22.3218 27.5426 22.3804 27.4244C22.4381 27.2949 22.5032 27.1875 22.5758 27.1022C22.6744 26.9865 22.7952 26.937 22.9385 26.9539C23.0756 26.9656 23.196 27.0155 23.2995 27.1036ZM24.0967 20.1843C24.479 19.8438 24.8263 19.6684 25.1386 19.6582C25.4568 19.6426 25.7329 19.7663 25.967 20.0291C26.1266 20.2084 26.2418 20.4218 26.3124 20.6696C26.389 20.912 26.4032 21.1565 26.3549 21.403C26.3127 21.6442 26.1989 21.8473 26.0137 22.0122C25.6313 22.3527 25.2628 22.5042 24.9079 22.4667C24.5591 22.4238 24.257 22.259 24.0016 21.9722C23.7835 21.7273 23.67 21.4374 23.661 21.1025C23.6467 20.7617 23.792 20.4557 24.0967 20.1843Z" fill="white"/>
</svg>
